<svg width="122" height="126" viewBox="0 0 122 126" fill="none" xmlns="http://www.w3.org/2000/svg">
<g clip-path="url(#clip0_134_623)">
<path d="M73.826 0.006449C60.02 -0.143142 46.2047 3.553 33.879 9.77973C21.5534 16.0065 10.8047 25.8202 4.84908 38.2862C-1.10651 50.7521 -1.86693 65.9075 4.17592 78.3236C6.44159 82.9765 9.86349 87.3925 14.7003 89.2312C20.8865 91.5811 27.7427 89.2562 34.3527 89.01C43.3126 88.6796 51.9515 92.2293 59.9078 96.3742C67.8642 100.519 75.5432 105.368 84.1166 107.989C92.69 110.61 102.579 110.71 110.03 105.727C117.064 101.024 120.794 92.5067 121.686 84.0922C122.577 75.6777 121 67.2227 119.433 58.9079C117.787 50.2223 109.84 0.392892 73.826 0.006449Z" fill="#715FE0"/>
<g opacity="0.7">
<path d="M73.826 0.006449C60.02 -0.143142 46.2047 3.553 33.879 9.77973C21.5534 16.0065 10.8047 25.8202 4.84908 38.2862C-1.10651 50.7521 -1.86693 65.9075 4.17592 78.3236C6.44159 82.9765 9.86349 87.3925 14.7003 89.2312C20.8865 91.5811 27.7427 89.2562 34.3527 89.01C43.3126 88.6796 51.9515 92.2293 59.9078 96.3742C67.8642 100.519 75.5432 105.368 84.1166 107.989C92.69 110.61 102.579 110.71 110.03 105.727C117.064 101.024 120.794 92.5067 121.686 84.0922C122.577 75.6777 121 67.2227 119.433 58.9079C117.787 50.2223 109.84 0.392892 73.826 0.006449Z" fill="white"/>
</g>
<path d="M61.3727 125.41C86.1577 125.41 106.25 123.487 106.25 121.115C106.25 118.744 86.1577 116.821 61.3727 116.821C36.5878 116.821 16.4956 118.744 16.4956 121.115C16.4956 123.487 36.5878 125.41 61.3727 125.41Z" fill="#715FE0"/>
<path opacity="0.5" d="M61.3727 125.41C86.1577 125.41 106.25 123.487 106.25 121.115C106.25 118.744 86.1577 116.821 61.3727 116.821C36.5878 116.821 16.4956 118.744 16.4956 121.115C16.4956 123.487 36.5878 125.41 61.3727 125.41Z" fill="white"/>
<path d="M95.5294 37.8309C95.6821 39.0961 95.0712 40.9473 93.7623 40.8071C93.5484 40.7802 93.3389 40.7258 93.139 40.645C93.2668 39.7101 92.7027 38.6536 93.1702 37.8402C93.4226 37.3852 94.0646 36.5406 94.5633 36.4659C95.2427 36.3568 95.4421 37.1359 95.5294 37.8309Z" fill="#715FE0"/>
<path d="M94.0867 41.8387C93.6504 42.7736 93.0521 43.5372 91.6465 43.4998C91.3318 43.4868 91.0262 43.39 90.7614 43.2193C90.63 43.1398 90.5172 43.033 90.4306 42.9061C90.344 42.7792 90.2858 42.6352 90.2597 42.4838C90.246 42.2851 90.2918 42.0869 90.3911 41.9143C90.4904 41.7417 90.6389 41.6025 90.8175 41.5146C91.1781 41.3378 91.5723 41.24 91.9738 41.2279C92.4019 41.2008 92.8316 41.2451 93.2453 41.3587C93.5515 41.4687 93.8362 41.6311 94.0867 41.8387Z" fill="#715FE0"/>
<path d="M90.9795 38.4448C92.4536 40.1308 94.0773 41.633 95.5451 43.2567" stroke="#715FE0" stroke-miterlimit="10"/>
<path d="M100.229 42.998C100.274 43.715 100.088 44.4275 99.6963 45.0299C99.3192 45.5909 98.7614 45.9244 98.1381 45.7717C97.9351 45.712 97.7387 45.6315 97.5522 45.5317C97.6434 45.0486 97.655 44.5538 97.5864 44.067C97.5036 43.5957 97.5678 43.1105 97.7703 42.677C98.0321 42.2251 98.6554 41.3525 99.1977 41.34C99.9207 41.3245 100.189 42.2407 100.229 42.998Z" fill="#715FE0"/>
<path d="M98.2971 46.8344C98.0332 47.257 97.6734 47.6115 97.2469 47.8691C96.7497 48.1243 96.182 48.2076 95.6325 48.1059C95.347 48.0689 95.0773 47.9534 94.8534 47.7725C94.7443 47.6954 94.6561 47.5923 94.5968 47.4726C94.5375 47.3529 94.5089 47.2203 94.5137 47.0868C94.5385 46.8933 94.6134 46.7096 94.7309 46.5538C94.8484 46.3981 95.0045 46.2756 95.1837 46.1986C95.543 46.0429 95.9332 45.9714 96.3244 45.9898C96.7444 45.9914 97.1598 46.0772 97.546 46.2423C97.8291 46.3942 98.0833 46.5946 98.2971 46.8344Z" fill="#715FE0"/>
<path d="M95.5449 43.2723C96.2898 44.0732 96.9723 44.924 97.6392 45.7842C98.3061 46.6443 98.9045 47.5606 99.4623 48.4986" stroke="#715FE0" stroke-miterlimit="10"/>
<path d="M104.109 49.1094C103.919 50.4745 102.738 51.9766 101.535 51.4437C101.343 51.3535 101.164 51.2383 101.002 51.1009C101.106 50.8804 101.178 50.6465 101.217 50.4059C101.258 50.1659 101.279 49.9166 101.307 49.6704C101.32 49.1913 101.48 48.7276 101.765 48.3428C102.111 47.9501 102.881 47.2177 103.427 47.305C104.128 47.4297 104.209 48.374 104.109 49.1094Z" fill="#715FE0"/>
<path d="M101.507 52.5188C100.775 53.2761 99.9644 53.7654 98.6617 53.301C98.1038 53.1172 97.6021 52.6092 97.7267 52.0544C97.7834 51.8681 97.889 51.7004 98.0327 51.5688C98.1763 51.4372 98.3526 51.3466 98.5432 51.3065C98.9299 51.2179 99.3315 51.2179 99.7182 51.3065C100.128 51.396 100.518 51.5608 100.868 51.7927C101.126 51.9913 101.343 52.2379 101.507 52.5188Z" fill="#715FE0"/>
<path d="M99.4531 48.483C100.577 50.3605 101.559 52.3188 102.392 54.3419" stroke="#715FE0" stroke-miterlimit="10"/>
<path d="M106.933 55.7662C106.73 56.4724 106.29 57.0868 105.686 57.5052C105.125 57.8823 104.486 57.9726 103.963 57.5893C103.795 57.4607 103.642 57.3133 103.508 57.1499C103.778 56.7354 103.963 56.2715 104.053 55.7849C104.125 55.3141 104.343 54.8779 104.676 54.5383C105.069 54.2017 105.948 53.6033 106.465 53.7467C106.622 53.7981 106.759 53.8961 106.858 54.0275C106.957 54.159 107.014 54.3176 107.02 54.4822C107.085 54.9114 107.056 55.3498 106.933 55.7662Z" fill="#715FE0"/>
<path d="M103.707 58.6302C102.822 59.1974 101.912 59.4374 100.762 58.7736C100.276 58.4962 99.8925 57.982 100.139 57.527C100.244 57.3712 100.383 57.2405 100.544 57.1441C100.706 57.0477 100.886 56.988 101.074 56.9692C101.458 56.9272 101.847 56.9819 102.205 57.1281C102.592 57.2748 102.944 57.5022 103.237 57.795C103.446 58.0404 103.606 58.324 103.707 58.6302Z" fill="#715FE0"/>
<path d="M102.401 54.342L103.025 55.8659C103.217 56.3684 103.38 56.8814 103.514 57.4023C103.791 58.452 103.996 59.5193 104.128 60.5967" stroke="#715FE0" stroke-miterlimit="10"/>
<path d="M108.042 63.2177C107.645 63.8303 107.057 64.2947 106.369 64.5391C105.72 64.7479 105.091 64.6544 104.686 64.1433C104.561 63.973 104.456 63.789 104.374 63.5948C105.147 63.0276 105.402 61.8278 106.263 61.4133C106.739 61.2013 107.755 60.8523 108.204 61.1733C108.803 61.6314 108.463 62.5944 108.042 63.2177Z" fill="#715FE0"/>
<path d="M104.128 65.0875C103.655 65.2427 103.152 65.2844 102.66 65.2091C102.123 65.0948 101.635 64.8185 101.261 64.4175C100.868 64.0248 100.637 63.4296 101.002 63.0182C101.142 62.8852 101.313 62.7892 101.5 62.7386C101.687 62.688 101.883 62.6845 102.071 62.7284C102.452 62.8155 102.809 62.9893 103.112 63.2363C103.44 63.4906 103.714 63.8086 103.916 64.1713C104.047 64.4596 104.119 64.7711 104.128 65.0875Z" fill="#715FE0"/>
<path d="M104.128 60.5967C104.413 62.7462 104.36 64.9273 103.969 67.0602" stroke="#715FE0" stroke-miterlimit="10"/>
<path d="M106.683 71.0089C106.373 71.2378 106.026 71.4127 105.658 71.5262C105.308 71.6325 104.941 71.6706 104.576 71.6384C104.265 71.63 103.964 71.5216 103.719 71.3291C103.474 71.1366 103.297 70.8702 103.215 70.5695C103.173 70.3642 103.15 70.1556 103.146 69.9462C103.618 69.7972 104.054 69.5521 104.427 69.2263C104.785 68.8998 105.226 68.6778 105.701 68.5843C106.222 68.5406 107.306 68.5219 107.615 69.005C108.039 69.6376 107.338 70.504 106.683 71.0089Z" fill="#715FE0"/>
<path d="M102.333 71.1522C101.821 71.0862 101.336 70.8828 100.93 70.5634C100.524 70.2441 100.212 69.8208 100.027 69.3384C99.8054 68.8553 99.7992 68.3286 100.26 68.1323C100.442 68.0765 100.634 68.0613 100.823 68.0877C101.011 68.1141 101.192 68.1814 101.351 68.285C101.676 68.4931 101.947 68.775 102.143 69.1078C102.354 69.4544 102.484 69.8444 102.523 70.2484C102.528 70.5601 102.463 70.869 102.333 71.1522Z" fill="#715FE0"/>
<path d="M103.956 67.0602C103.748 68.1129 103.421 69.1385 102.981 70.1175C102.535 71.0854 101.95 71.9831 101.245 72.7821" stroke="#715FE0" stroke-miterlimit="10"/>
<path d="M102.006 77.3322C101.313 77.4266 100.608 77.3251 99.9705 77.0393C99.3472 76.7494 98.9452 76.2602 99.0013 75.6088C99.0233 75.395 99.0747 75.1853 99.154 74.9855C100.089 75.104 101.139 74.5118 101.959 74.9699C102.258 75.1369 102.546 75.3243 102.819 75.5309C102.958 75.6232 103.077 75.7425 103.169 75.8817C103.261 76.0209 103.324 76.1771 103.355 76.3412C103.48 77.0081 102.71 77.2419 102.006 77.3322Z" fill="#715FE0"/>
<path d="M97.9697 75.9298C97.0347 75.481 96.3086 74.8577 96.3086 73.4927C96.3086 72.9161 96.6483 72.2305 97.2654 72.1401C97.4644 72.1221 97.6643 72.1641 97.8393 72.2608C98.0143 72.3574 98.1563 72.5043 98.247 72.6824C98.4299 73.0387 98.536 73.4294 98.5587 73.8293C98.5957 74.2552 98.5587 74.6843 98.4496 75.0977C98.3424 75.4023 98.1797 75.6844 97.9697 75.9298Z" fill="#715FE0"/>
<path d="M101.245 72.7822C101.08 72.9879 100.877 73.1655 100.696 73.3587L100.101 73.9384L98.9262 75.1133C98.5367 75.4997 98.1502 75.8862 97.7513 76.257C97.5519 76.4409 97.3524 76.6248 97.1467 76.8024C96.941 76.9801 96.7322 77.1515 96.5234 77.3447" stroke="#715FE0" stroke-miterlimit="10"/>
<path d="M97.5834 81.6766C97.2732 81.7137 96.9603 81.7231 96.6484 81.7046C96.3102 81.6841 95.9749 81.6288 95.648 81.5395C95.0247 81.3649 94.4638 81.0034 94.4014 80.3521C94.3871 80.1378 94.4039 79.9226 94.4513 79.7132C95.4174 79.682 96.3679 79.0494 97.2125 79.5075C97.6706 79.7413 98.5152 80.3739 98.6461 80.8383C98.6925 80.9575 98.6925 81.0899 98.6461 81.2091C98.6008 81.3134 98.5203 81.3983 98.4186 81.4491C98.1539 81.5686 97.872 81.6454 97.5834 81.6766Z" fill="#715FE0"/>
<path d="M93.4601 80.9162C92.9626 80.8697 92.4832 80.7064 92.0608 80.4393C91.665 80.1526 91.3752 79.6945 91.3004 78.8811C91.2318 78.2048 91.6121 77.2699 92.2852 77.0424C92.4806 76.9769 92.6927 76.9812 92.8853 77.0545C93.078 77.1278 93.2392 77.2656 93.3417 77.4444C93.5451 77.8058 93.6744 78.2042 93.7219 78.6162C93.788 79.0566 93.8006 79.5035 93.7593 79.9469C93.7037 80.282 93.6031 80.6081 93.4601 80.9162Z" fill="#715FE0"/>
<path d="M96.5203 77.3446C94.8174 78.864 93.4766 80.7457 92.5967 82.8514" stroke="#715FE0" stroke-miterlimit="10"/>
<path d="M95.4017 86.3077C94.8526 86.6529 94.242 86.8888 93.6035 87.0027C92.9428 87.1055 92.3102 87.0214 91.9705 86.4573C91.8621 86.271 91.7862 86.0676 91.7461 85.8558C92.5969 85.4164 93.2015 84.4441 94.1551 84.4908C94.6694 84.4908 95.7134 84.7059 96.025 85.0767C96.4395 85.5567 95.9066 85.968 95.4017 86.3077Z" fill="#715FE0"/>
<path d="M91.3502 87.3703C90.3467 87.6539 89.365 87.844 88.5236 86.451C88.3469 86.1189 88.2538 85.7488 88.2525 85.3727C88.2511 85.0018 88.3865 84.6434 88.6327 84.366C88.7844 84.2244 88.9801 84.1391 89.1871 84.1244C89.3941 84.1096 89.5999 84.1663 89.7702 84.285C90.1038 84.5264 90.3874 84.8301 90.6054 85.1794C90.8533 85.551 91.0563 85.9506 91.21 86.3699C91.2628 86.5315 91.2952 86.699 91.3066 86.8686C91.3502 87.0369 91.3502 87.2145 91.3502 87.3703Z" fill="#715FE0"/>
<path d="M92.597 82.8514C91.7032 84.948 91.2931 87.219 91.3972 89.4958" stroke="#715FE0" stroke-miterlimit="10"/>
<path d="M117.84 72.8788C117.561 73.1565 117.231 73.3786 116.868 73.5333C116.534 73.6828 116.172 73.7613 115.805 73.7639C115.493 73.7882 115.182 73.71 114.918 73.5413C114.654 73.3726 114.453 73.1225 114.344 72.8289C114.276 72.6271 114.232 72.4179 114.213 72.2057C114.667 72.0009 115.072 71.7013 115.4 71.3268C115.715 70.9476 116.119 70.6521 116.575 70.4667C117.083 70.3358 118.149 70.0989 118.532 70.5695C118.647 70.7401 118.715 70.9379 118.729 71.143C118.744 71.3481 118.704 71.5534 118.613 71.7382C118.439 72.1686 118.176 72.5573 117.84 72.8788Z" fill="#715FE0"/>
<path d="M113.505 73.5208C112.986 73.5123 112.48 73.3601 112.043 73.0812C111.605 72.8022 111.254 72.4074 111.027 71.9407C110.781 71.4857 110.678 70.9808 111.121 70.772C111.476 70.64 111.869 70.6534 112.215 70.8094C112.564 70.9651 112.869 71.2062 113.1 71.5106C113.355 71.8267 113.531 72.1998 113.611 72.5983C113.643 72.9098 113.607 73.2247 113.505 73.5208Z" fill="#715FE0"/>
<path d="M114.574 69.2823C114.535 71.4369 113.848 73.5298 112.602 75.2878" stroke="#715FE0" stroke-miterlimit="10"/>
<path d="M113.583 79.9718C112.861 80.1475 112.1 80.0637 111.433 79.735C110.831 79.4233 110.461 78.8967 110.548 78.2453C110.586 78.0325 110.645 77.8238 110.722 77.622C111.657 77.781 112.711 77.0798 113.618 77.354C114.113 77.5192 115.12 77.9274 115.21 78.4915C115.347 79.2706 114.369 79.7849 113.583 79.9718Z" fill="#715FE0"/>
<path d="M109.504 78.4884C109.063 78.2545 108.684 77.9203 108.397 77.5129C108.112 77.0449 107.974 76.502 108.001 75.9547C107.998 75.6886 108.065 75.4264 108.195 75.1943C108.249 75.0905 108.331 75.0032 108.431 74.9413C108.53 74.8794 108.645 74.8451 108.762 74.8421C108.953 74.8555 109.138 74.9129 109.304 75.0096C109.469 75.1064 109.61 75.2399 109.715 75.4C109.931 75.7221 110.068 76.0904 110.114 76.4751C110.171 76.8843 110.14 77.301 110.021 77.6968C109.903 77.9923 109.727 78.2614 109.504 78.4884Z" fill="#715FE0"/>
<path d="M112.602 75.2878C111.993 76.1819 111.287 77.0064 110.498 77.7467C109.7 78.486 108.841 79.1574 107.93 79.7537" stroke="#715FE0" stroke-miterlimit="10"/>
<path d="M107.328 84.4377C106.614 84.3507 105.947 84.0373 105.424 83.5433C104.941 83.0665 104.714 82.4681 104.985 81.8729C105.077 81.6804 105.193 81.5003 105.331 81.3369C106.191 81.7638 107.378 81.4553 108.12 82.0536C108.522 82.384 109.285 83.1382 109.195 83.6867C109.07 84.4097 108.082 84.5312 107.328 84.4377Z" fill="#715FE0"/>
<path d="M103.904 81.8324C103.156 81.1 102.691 80.2741 103.146 78.9808C103.343 78.4385 103.816 77.9306 104.362 78.0646C104.546 78.1257 104.712 78.2332 104.843 78.3767C104.974 78.5202 105.066 78.695 105.11 78.8842C105.199 79.2676 105.199 79.6663 105.11 80.0498C105.026 80.4625 104.863 80.855 104.63 81.206C104.427 81.4568 104.181 81.6691 103.904 81.8324Z" fill="#715FE0"/>
<path d="M107.93 79.7537C106.078 80.9348 104.111 81.9237 102.059 82.705" stroke="#715FE0" stroke-miterlimit="10"/>
<path d="M100.846 87.1772C100.195 86.9659 99.6131 86.5838 99.1602 86.0708C98.7239 85.5659 98.4995 84.9645 98.8112 84.3817C98.9186 84.1964 99.0507 84.0266 99.2038 83.8768C100.027 84.3723 101.211 84.2633 101.825 84.9925C102.155 85.3914 102.744 86.2827 102.585 86.7938C102.373 87.4732 101.504 87.3797 100.846 87.1772Z" fill="#715FE0"/>
<path d="M97.717 84.3037C96.9815 83.5651 96.4143 82.7642 97.0937 81.4085C97.3867 80.8382 98.0629 80.3178 98.652 80.4954C98.8392 80.5627 99.0023 80.6837 99.121 80.8434C99.2397 81.0031 99.3085 81.1943 99.3189 81.3929C99.3401 81.7932 99.273 82.1932 99.1225 82.5647C98.9718 82.9728 98.7561 83.3538 98.4837 83.6929C98.2596 83.9331 98.0012 84.139 97.717 84.3037Z" fill="#715FE0"/>
<path d="M102.059 82.705C100.014 83.5184 97.8639 84.1978 95.8662 85.3042" stroke="#715FE0" stroke-miterlimit="10"/>
<path d="M96.025 89.7233C95.4012 89.6421 94.7937 89.4655 94.2236 89.1998C93.6377 88.9193 93.1266 88.5017 93.164 87.841C93.1844 87.6255 93.2402 87.4149 93.3292 87.2177C93.8137 87.2536 94.3001 87.2536 94.7846 87.2177C95.2425 87.1763 95.6996 87.305 96.0686 87.5792C96.4675 87.9064 97.1562 88.7042 97.1843 89.1873C97.2373 89.8075 96.6077 89.7763 96.025 89.7233Z" fill="#715FE0"/>
<path d="M92.148 88.2867C91.6555 88.1961 91.1912 87.9912 90.7924 87.6883C90.434 87.3767 90.1971 86.8313 90.2968 85.9555C90.3716 85.2138 90.9949 84.2758 91.7335 84.1636C91.9407 84.1275 92.1538 84.1681 92.3333 84.2776C92.5128 84.3871 92.6463 84.5581 92.709 84.7588C92.8279 85.1629 92.8671 85.5863 92.8243 86.0054C92.7957 86.4617 92.7206 86.9139 92.5999 87.3549C92.4804 87.6796 92.329 87.9917 92.148 88.2867Z" fill="#715FE0"/>
<path d="M95.8661 85.3042C94.8542 85.8516 93.9229 86.5364 93.0987 87.3393C92.2502 88.1522 91.5906 89.1417 91.1665 90.2376" stroke="#715FE0" stroke-miterlimit="10"/>
<path d="M84.2261 122.842C84.1232 122.867 80.5331 122.867 80.4271 122.842C77.7937 122.262 68.4412 119.189 76.8712 109.239H87.6636C96.0874 119.186 86.8626 122.262 84.2261 122.842Z" fill="white" stroke="#263238" stroke-miterlimit="10"/>
<path d="M87.6605 109.304C87.6605 109.466 87.4174 109.616 86.9904 109.75C86.0555 109.46 84.2853 109.267 82.2347 109.267C80.184 109.267 78.4045 109.46 77.4821 109.75C77.0551 109.619 76.812 109.466 76.812 109.304C76.812 108.793 79.2397 108.369 82.2347 108.369C85.2296 108.369 87.6605 108.793 87.6605 109.304Z" fill="white" stroke="#263238" stroke-miterlimit="10"/>
<path d="M86.9874 109.75C86.0524 110.037 84.2823 110.23 82.2316 110.23C80.181 110.23 78.4015 110.037 77.479 109.75C78.4139 109.46 80.1841 109.267 82.2316 109.267C84.2791 109.267 86.068 109.46 86.9874 109.75Z" fill="#263238" stroke="#263238" stroke-miterlimit="10"/>
<path d="M86.3921 112.121C86.7692 112.043 87.1432 111.956 87.5078 111.86L86.3921 112.121Z" fill="white"/>
<path d="M86.3921 112.121C86.7692 112.043 87.1432 111.956 87.5078 111.86" stroke="#263238" stroke-miterlimit="10"/>
<path d="M77.083 111.701C79.6572 112.636 82.6771 112.726 85.4757 112.287L77.083 111.701Z" fill="white"/>
<path d="M77.083 111.701C79.6572 112.636 82.6771 112.726 85.4757 112.287" stroke="#263238" stroke-miterlimit="10"/>
<path d="M90.1037 94.0115C88.8727 94.1143 87.168 93.3415 87.2209 92.1416C87.2363 91.9503 87.2761 91.7618 87.3394 91.5806C88.2307 91.7895 89.1687 91.297 90.0102 91.7053C90.4714 91.9359 91.3845 92.4844 91.478 93.0018C91.5902 93.6905 90.7737 93.9554 90.1037 94.0115Z" fill="#715FE0"/>
<path d="M86.2702 92.3473C85.3664 91.8611 84.6372 91.2378 84.6216 89.9102C84.6216 89.3524 84.8958 88.7602 85.4225 88.7665C85.6147 88.7848 85.7997 88.8486 85.9623 88.9527C86.1249 89.0567 86.2603 89.198 86.3575 89.3648C86.5556 89.6921 86.683 90.0573 86.7314 90.4369C86.791 90.8256 86.7773 91.222 86.6909 91.6056C86.5995 91.8775 86.4567 92.1293 86.2702 92.3473Z" fill="#715FE0"/>
<path d="M89.1191 89.6423C87.8725 91.051 86.4233 92.2944 85.0303 93.6345" stroke="#715FE0" stroke-miterlimit="10"/>
<path d="M86.1987 97.8105C85.5673 97.8212 84.9405 97.7024 84.3568 97.4615C83.7741 97.2059 83.2318 96.8195 83.1788 96.2149C83.165 96.0211 83.1829 95.8264 83.2318 95.6383C84.1356 95.7287 85.0269 95.2426 85.8465 95.7007C86.2953 95.9469 87.1492 96.5639 87.277 97.0345C87.4421 97.6641 86.7908 97.7918 86.1987 97.8105Z" fill="#715FE0"/>
<path d="M82.2783 96.6263C81.7885 96.5334 81.3235 96.3392 80.9133 96.056C80.5268 95.7443 80.2588 95.2987 80.2276 94.4977C80.1965 93.8308 80.5206 93.0766 81.1345 92.9582C81.3316 92.9353 81.531 92.9707 81.7083 93.0598C81.8855 93.149 82.0327 93.2881 82.1318 93.4599C82.3312 93.7982 82.4635 94.1717 82.5214 94.5601C82.5956 94.9618 82.6124 95.3721 82.5712 95.7786C82.5146 96.0737 82.4159 96.3592 82.2783 96.6263Z" fill="#715FE0"/>
<path d="M85.0303 93.6345C84.325 94.3059 83.658 95.0166 83.0327 95.7631C82.7139 96.1453 82.4223 96.5493 82.16 96.9723C82.0354 97.1904 81.9014 97.3992 81.7892 97.6236L81.4775 98.2968" stroke="#715FE0" stroke-miterlimit="10"/>
<path d="M84.3474 101.482C83.7883 101.772 83.1791 101.954 82.5523 102.018C81.9072 102.08 81.259 101.962 80.9317 101.454C80.8319 101.288 80.7573 101.108 80.7104 100.921C81.1143 100.725 81.4966 100.488 81.8511 100.213C82.199 99.9525 82.6259 99.8194 83.0603 99.8361C83.5651 99.8704 84.5967 100.117 84.9302 100.444C85.1545 100.665 85.139 100.849 84.9987 101.014C84.8142 101.211 84.5929 101.37 84.3474 101.482Z" fill="#715FE0"/>
<path d="M80.3088 102.211C79.296 102.392 78.3174 102.47 77.504 101.257C77.1706 100.743 77.0958 99.8892 77.6038 99.4778C77.7648 99.3596 77.9584 99.2941 78.1581 99.2902C78.3579 99.2863 78.5539 99.3442 78.7194 99.456C79.0519 99.6737 79.3396 99.953 79.5671 100.279C79.816 100.603 80.0203 100.96 80.1748 101.338C80.2631 101.621 80.3082 101.915 80.3088 102.211Z" fill="#715FE0"/>
<path d="M81.465 98.2966C81.0787 99.2048 80.7853 100.15 80.5893 101.117C80.3903 102.075 80.2652 103.047 80.2153 104.025" stroke="#715FE0" stroke-miterlimit="10"/>
<path d="M83.9426 106.262C83.4965 106.722 82.9565 107.081 82.3594 107.313C81.7361 107.543 81.1128 107.584 80.6453 107.182C80.5038 107.05 80.3839 106.896 80.29 106.727C81.0162 106.175 81.3122 105.193 82.2285 104.969C82.724 104.841 83.768 104.71 84.1856 104.954C84.7279 105.265 84.3508 105.814 83.9426 106.262Z" fill="#715FE0"/>
<path d="M80.2307 108.07C79.3113 108.494 78.3608 108.787 77.2918 107.861C76.8337 107.472 76.5595 106.717 76.9116 106.228C77.0423 106.08 77.2125 105.972 77.4023 105.916C77.5922 105.861 77.7938 105.861 77.9837 105.916C78.3611 106.023 78.7151 106.2 79.0277 106.437C79.3575 106.672 79.6497 106.956 79.8941 107.278C80.0517 107.52 80.1656 107.788 80.2307 108.07Z" fill="#715FE0"/>
<path d="M80.2151 104.025C80.1102 105.973 80.2294 107.926 80.5704 109.846" stroke="#715FE0" stroke-miterlimit="10"/>
<path d="M91.8924 103.682C90.6613 104.062 88.8164 103.635 88.6917 102.395C88.6775 102.195 88.69 101.993 88.7291 101.796C89.6641 101.818 90.5273 101.111 91.4436 101.338C91.9422 101.472 92.952 101.831 93.1265 102.336C93.354 103.018 92.5655 103.489 91.8924 103.682Z" fill="#715FE0"/>
<path d="M87.7665 102.797C86.7817 102.485 85.9558 101.999 85.7377 100.662C85.6442 100.098 85.828 99.4436 86.361 99.3376C86.5522 99.3186 86.7452 99.3464 86.9233 99.4186C87.1014 99.4908 87.2592 99.6053 87.3832 99.7521C87.6367 100.047 87.821 100.395 87.9223 100.771C88.0429 101.157 88.0905 101.562 88.0626 101.965C88.0155 102.258 87.9152 102.54 87.7665 102.797Z" fill="#715FE0"/>
<path d="M90.2095 99.4373C89.2029 101.154 87.9189 102.728 86.6973 104.361" stroke="#715FE0" stroke-miterlimit="10"/>
<path d="M88.3397 108.5C87.7009 108.641 87.0378 108.629 86.4044 108.466C85.7655 108.294 85.2233 107.948 85.1142 107.331C85.083 107.132 85.083 106.929 85.1142 106.73C86.0491 106.689 86.8968 106.022 87.7881 106.334C88.2743 106.502 89.2248 106.957 89.4056 107.434C89.6393 108.057 88.9506 108.347 88.3397 108.5Z" fill="#715FE0"/>
<path d="M84.2261 107.846C83.2102 107.659 82.2783 107.366 81.9947 105.907C81.9382 105.585 81.9694 105.253 82.0851 104.947C82.1359 104.801 82.218 104.668 82.3257 104.557C82.4333 104.446 82.564 104.36 82.7084 104.305C82.9004 104.258 83.1022 104.267 83.2892 104.331C83.4761 104.396 83.6403 104.514 83.7618 104.67C84.0091 104.98 84.1885 105.339 84.2884 105.723C84.4088 106.122 84.4676 106.537 84.463 106.954C84.4315 107.262 84.3515 107.563 84.2261 107.846Z" fill="#715FE0"/>
<path d="M86.6972 104.355C85.4165 105.976 84.3161 107.732 83.4155 109.591" stroke="#715FE0" stroke-miterlimit="10"/>
<path d="M113.144 68.6778C113.008 67.9473 113.15 67.1925 113.543 66.5617C113.59 66.5025 114.278 65.6641 114.512 65.686C115.031 65.9458 115.447 66.3729 115.693 66.8983C115.985 67.4477 116.107 68.0713 116.045 68.6902C115.974 69.2699 115.397 70.3763 114.618 70.423C113.839 70.4698 113.247 69.2107 113.144 68.6778Z" fill="#715FE0"/>
<path d="M94.139 12.9209H34.3027V92.4565H94.139V12.9209Z" fill="white"/>
<path d="M94.1546 92.6122H34.3184C34.2771 92.6122 34.2375 92.5958 34.2082 92.5666C34.179 92.5374 34.1626 92.4977 34.1626 92.4564V12.9209C34.1626 12.8796 34.179 12.8399 34.2082 12.8107C34.2375 12.7815 34.2771 12.7651 34.3184 12.7651H94.1546C94.196 12.7651 94.2356 12.7815 94.2648 12.8107C94.294 12.8399 94.3105 12.8796 94.3105 12.9209V92.4564C94.3105 92.4977 94.294 92.5374 94.2648 92.5666C94.2356 92.5958 94.196 92.6122 94.1546 92.6122ZM34.4742 92.3006H93.9988V13.0767H34.4742V92.3006Z" fill="#263238"/>
<path d="M86.4011 53.9025H40.8569V55.7723H86.4011V53.9025Z" fill="#263238"/>
<path d="M86.4009 30.3514H49.2993V32.2213H86.4009V30.3514Z" fill="#263238"/>
<path d="M86.4011 42.1254H40.8569V43.9952H86.4011V42.1254Z" fill="#263238"/>
<path d="M74.6984 77.4507C74.1187 78.074 73.5266 78.6973 72.922 79.3206H40.8628V77.4507H74.6984Z" fill="#263238"/>
<path d="M83.6458 65.6765C83.2469 66.2998 82.8386 66.9231 82.4148 67.5464H40.8628V65.6765H83.6458Z" fill="#263238"/>
<path d="M56.9626 90.3093C56.9626 90.3093 54.3011 91.6026 46.8465 92.3007H34.4585" stroke="#263238" stroke-linecap="round" stroke-linejoin="round"/>
<path d="M92.8428 47.0121C93.3034 46.3207 93.5821 45.5243 93.6531 44.6965C93.7466 43.6556 93.8151 42.4433 93.8369 41.7047L93.9553 37.6252V46.3888L92.8428 47.0121Z" fill="#263238"/>
<path d="M93.6064 46.0273C93.6064 46.4075 90.1222 55.5948 83.6337 65.6611C83.2348 66.2844 82.8265 66.9076 82.4027 67.5309C80.0776 71.0176 77.4984 74.3279 74.6863 77.4351C74.1066 78.0584 73.5145 78.6817 72.9099 79.305C68.3443 83.9361 63.0837 87.8784 57.1904 90.1379C57.527 89.9665 62.6598 87.3767 63.7786 79.305C63.8617 78.7129 63.921 78.0896 63.9563 77.4351C64.1059 74.7051 63.8129 71.4328 62.8219 67.5309C62.6681 66.9243 62.4967 66.301 62.3077 65.6611C60.8678 60.7962 58.3934 55.0308 54.451 48.2088L53.4351 45.9961L60.0731 47.866C89.7202 54.7503 93.5908 45.9961 93.5908 45.9961C93.5908 45.9961 93.6064 46.021 93.6064 46.0273Z" fill="white" stroke="#263238" stroke-linecap="round" stroke-linejoin="round"/>
<path d="M68.098 73.7607C68.1187 74.3126 68.1062 74.8652 68.0605 75.4156L68.098 73.7607Z" fill="white"/>
<path d="M68.098 73.7607C68.1187 74.3126 68.1062 74.8652 68.0605 75.4156" stroke="#263238" stroke-linecap="round" stroke-linejoin="round"/>
<path d="M60.9673 52.5406C65.2742 58.1191 67.4464 67.5465 68.0136 72.0186L60.9673 52.5406Z" fill="white"/>
<path d="M60.9673 52.5406C65.2742 58.1191 67.4464 67.5465 68.0136 72.0186" stroke="#263238" stroke-linecap="round" stroke-linejoin="round"/>
<path d="M41.5236 21.5909C41.1037 21.6042 40.6855 21.5329 40.2938 21.3814C39.902 21.2299 39.5447 21.0012 39.243 20.7089C38.9414 20.4166 38.7015 20.0667 38.5378 19.6799C38.374 19.2931 38.2896 18.8773 38.2896 18.4573C38.2896 18.0373 38.374 17.6215 38.5378 17.2347C38.7015 16.848 38.9414 16.498 39.243 16.2057C39.5447 15.9135 39.902 15.6848 40.2938 15.5332C40.6855 15.3817 41.1037 15.3105 41.5236 15.3237C41.6475 15.3237 41.7664 15.373 41.8541 15.4606C41.9418 15.5483 41.991 15.6672 41.991 15.7912C41.991 15.9152 41.9418 16.0341 41.8541 16.1217C41.7664 16.2094 41.6475 16.2586 41.5236 16.2586C41.0876 16.2549 40.6604 16.3808 40.2961 16.6203C39.9318 16.8598 39.6469 17.2021 39.4775 17.6038C39.3081 18.0055 39.2619 18.4485 39.3446 18.8765C39.4274 19.3046 39.6355 19.6984 39.9424 20.0079C40.2494 20.3175 40.6414 20.5289 41.0687 20.6154C41.496 20.7018 41.9393 20.6593 42.3425 20.4933C42.7456 20.3274 43.0903 20.0454 43.3329 19.6832C43.5755 19.321 43.7051 18.8948 43.7051 18.4589C43.7051 18.3349 43.7543 18.216 43.842 18.1283C43.9297 18.0407 44.0486 17.9914 44.1726 17.9914C44.2965 17.9914 44.4154 18.0407 44.5031 18.1283C44.5908 18.216 44.64 18.3349 44.64 18.4589C44.6392 19.2866 44.3111 20.0804 43.7273 20.6672C43.1434 21.2539 42.3513 21.586 41.5236 21.5909Z" fill="#263238"/>
<path d="M41.4488 20.2976C38.5847 20.2976 38.4289 14.1083 38.4258 12.8679V12.8305C38.4258 11.584 38.5723 5.35101 41.4488 5.35101C44.3253 5.35101 44.5247 12.0639 44.5403 12.8305L42.0471 12.8773C42.0421 11.4349 41.8323 10.0005 41.4238 8.61708C41.057 9.98645 40.8849 11.4007 40.9127 12.8181V12.8555C40.8851 14.2802 41.0635 15.7015 41.4425 17.0752C41.4706 16.9848 41.4986 16.8851 41.5298 16.7635L41.7261 16.0873L43.4651 16.5952C43.5513 16.6203 43.6318 16.6621 43.7018 16.7183C43.7718 16.7745 43.8301 16.844 43.8732 16.9227C43.9163 17.0015 43.9435 17.088 43.9532 17.1772C43.9628 17.2665 43.9548 17.3568 43.9295 17.4429C43.4246 19.3346 42.5863 20.2976 41.4488 20.2976Z" fill="#BFBFBF" stroke="#263238" stroke-linecap="round" stroke-linejoin="round"/>
<path d="M44.1883 18.9264C44.0643 18.9264 43.9454 18.8771 43.8577 18.7895C43.77 18.7018 43.7208 18.5829 43.7208 18.4589C43.7208 17.8786 43.4916 17.3218 43.083 16.9097C42.6744 16.4976 42.1195 16.2636 41.5392 16.2587C41.4153 16.2587 41.2964 16.2094 41.2087 16.1218C41.121 16.0341 41.0718 15.9152 41.0718 15.7912C41.0718 15.6672 41.121 15.5483 41.2087 15.4606C41.2964 15.373 41.4153 15.3237 41.5392 15.3237C42.3672 15.3295 43.1594 15.6622 43.7432 16.2495C44.3269 16.8367 44.6549 17.6309 44.6557 18.4589C44.6557 18.5829 44.6065 18.7018 44.5188 18.7895C44.4311 18.8771 44.3122 18.9264 44.1883 18.9264Z" fill="#263238"/>
<path d="M56.2956 21.5909C55.4816 21.5653 54.7096 21.2239 54.1429 20.639C53.5762 20.0542 53.2593 19.2717 53.2593 18.4573C53.2593 17.643 53.5762 16.8605 54.1429 16.2757C54.7096 15.6908 55.4816 15.3494 56.2956 15.3237C56.4196 15.3237 56.5385 15.373 56.6262 15.4606C56.7138 15.5483 56.7631 15.6672 56.7631 15.7912C56.7631 15.9152 56.7138 16.0341 56.6262 16.1218C56.5385 16.2094 56.4196 16.2587 56.2956 16.2587C55.8605 16.2587 55.4351 16.3877 55.0732 16.6295C54.7114 16.8712 54.4294 17.2149 54.2629 17.6169C54.0963 18.0189 54.0528 18.4613 54.1377 18.8881C54.2226 19.3149 54.4321 19.707 54.7398 20.0147C55.0475 20.3224 55.4396 20.5319 55.8664 20.6168C56.2932 20.7017 56.7356 20.6582 57.1376 20.4916C57.5396 20.3251 57.8833 20.0431 58.125 19.6813C58.3668 19.3195 58.4958 18.8941 58.4958 18.4589C58.4958 18.3349 58.5451 18.216 58.6328 18.1283C58.7204 18.0407 58.8393 17.9914 58.9633 17.9914C59.0873 17.9914 59.2062 18.0407 59.2939 18.1283C59.3815 18.216 59.4308 18.3349 59.4308 18.4589C59.4291 19.2896 59.0982 20.0858 58.5105 20.6729C57.9228 21.26 57.1263 21.5901 56.2956 21.5909Z" fill="#263238"/>
<path d="M56.2242 20.2976C53.3601 20.2976 53.2012 14.1083 53.2012 12.8679V12.8305C53.2012 11.584 53.3445 5.35101 56.2242 5.35101C59.1038 5.35101 59.3001 12.0639 59.3157 12.8305L56.8225 12.8773C56.8178 11.4349 56.6079 10.0004 56.1992 8.61708C55.8337 9.98666 55.6627 11.4009 55.6912 12.8181V12.8555C55.6637 14.2864 55.8421 15.7138 56.221 17.0939C56.2522 17.0035 56.2803 16.9038 56.3114 16.7822L56.5078 16.106L58.2467 16.6139C58.333 16.639 58.4134 16.6808 58.4834 16.737C58.5534 16.7932 58.6117 16.8627 58.6548 16.9414C58.698 17.0202 58.7251 17.1067 58.7348 17.1959C58.7445 17.2852 58.7364 17.3755 58.7111 17.4616C58.2 19.3346 57.3617 20.2976 56.2242 20.2976Z" fill="#BFBFBF" stroke="#263238" stroke-linecap="round" stroke-linejoin="round"/>
<path d="M58.9633 18.9264C58.8393 18.9264 58.7204 18.8771 58.6327 18.7895C58.5451 18.7018 58.4958 18.5829 58.4958 18.4589C58.495 17.8756 58.2629 17.3165 57.8505 16.904C57.438 16.4916 56.8789 16.2595 56.2956 16.2587C56.1716 16.2587 56.0527 16.2094 55.965 16.1218C55.8774 16.0341 55.8281 15.9152 55.8281 15.7912C55.8281 15.6672 55.8774 15.5483 55.965 15.4606C56.0527 15.373 56.1716 15.3237 56.2956 15.3237C57.1268 15.3246 57.9238 15.6551 58.5116 16.2429C59.0994 16.8307 59.4299 17.6277 59.4308 18.4589C59.4308 18.5829 59.3815 18.7018 59.2938 18.7895C59.2062 18.8771 59.0873 18.9264 58.9633 18.9264Z" fill="#263238"/>
<path d="M71.071 21.5909C70.257 21.5653 69.485 21.2239 68.9183 20.639C68.3516 20.0542 68.0347 19.2717 68.0347 18.4573C68.0347 17.643 68.3516 16.8605 68.9183 16.2757C69.485 15.6908 70.257 15.3494 71.071 15.3237C71.195 15.3237 71.3139 15.373 71.4016 15.4606C71.4892 15.5483 71.5385 15.6672 71.5385 15.7912C71.5385 15.9152 71.4892 16.0341 71.4016 16.1218C71.3139 16.2094 71.195 16.2587 71.071 16.2587C70.6358 16.2587 70.2104 16.3877 69.8486 16.6295C69.4868 16.8712 69.2048 17.2149 69.0383 17.6169C68.8717 18.0189 68.8282 18.4613 68.913 18.8881C68.9979 19.3149 69.2075 19.707 69.5152 20.0147C69.8229 20.3224 70.215 20.5319 70.6418 20.6168C71.0686 20.7017 71.511 20.6582 71.913 20.4916C72.315 20.3251 72.6587 20.0431 72.9004 19.6813C73.1422 19.3195 73.2712 18.8941 73.2712 18.4589C73.2712 18.3349 73.3205 18.216 73.4082 18.1283C73.4958 18.0407 73.6147 17.9914 73.7387 17.9914C73.8627 17.9914 73.9816 18.0407 74.0693 18.1283C74.1569 18.216 74.2062 18.3349 74.2062 18.4589C74.2045 19.2896 73.8736 20.0858 73.2859 20.6729C72.6982 21.26 71.9017 21.5901 71.071 21.5909Z" fill="#263238"/>
<path d="M70.9961 20.2976C68.1321 20.2976 67.9763 14.1083 67.9731 12.8679V12.8305C67.9731 11.584 68.1196 5.35101 70.9961 5.35101C73.8726 5.35101 74.0752 12.0639 74.0877 12.8305L71.5945 12.8773C71.5895 11.4349 71.3796 10.0005 70.9712 8.61708C70.6063 9.99092 70.4374 11.4094 70.4694 12.8305V12.8679C70.4418 14.2927 70.6203 15.714 70.9993 17.0876C71.0273 16.9973 71.0585 16.8975 71.0865 16.776L71.286 16.0997L73.0218 16.6077C73.1081 16.6328 73.1885 16.6746 73.2585 16.7308C73.3285 16.787 73.3868 16.8564 73.4299 16.9352C73.4731 17.0139 73.5002 17.1004 73.5099 17.1897C73.5195 17.2789 73.5115 17.3692 73.4862 17.4554C72.9626 19.3346 72.1368 20.2976 70.9961 20.2976Z" fill="#BFBFBF" stroke="#263238" stroke-linecap="round" stroke-linejoin="round"/>
<path d="M73.7387 18.9264C73.6147 18.9264 73.4958 18.8771 73.4081 18.7895C73.3205 18.7018 73.2712 18.5829 73.2712 18.4589C73.2704 17.8756 73.0383 17.3165 72.6259 16.904C72.2134 16.4916 71.6543 16.2595 71.071 16.2587C70.947 16.2587 70.8281 16.2094 70.7404 16.1218C70.6528 16.0341 70.6035 15.9152 70.6035 15.7912C70.6035 15.6672 70.6528 15.5483 70.7404 15.4606C70.8281 15.373 70.947 15.3237 71.071 15.3237C71.9028 15.3237 72.7005 15.6539 73.289 16.2418C73.8775 16.8297 74.2085 17.6271 74.2093 18.4589C74.2085 18.5832 74.1585 18.7021 74.0704 18.7896C73.9822 18.8772 73.863 18.9264 73.7387 18.9264Z" fill="#263238"/>
<path d="M85.8463 21.5909C85.4265 21.6042 85.0083 21.5329 84.6165 21.3814C84.2248 21.2299 83.8675 21.0012 83.5658 20.7089C83.2641 20.4166 83.0243 20.0667 82.8605 19.6799C82.6967 19.2931 82.6123 18.8773 82.6123 18.4573C82.6123 18.0373 82.6967 17.6215 82.8605 17.2347C83.0243 16.848 83.2641 16.498 83.5658 16.2057C83.8675 15.9135 84.2248 15.6848 84.6165 15.5332C85.0083 15.3817 85.4265 15.3105 85.8463 15.3237C85.9703 15.3237 86.0892 15.373 86.1769 15.4606C86.2645 15.5483 86.3138 15.6672 86.3138 15.7912C86.3138 15.9152 86.2645 16.0341 86.1769 16.1217C86.0892 16.2094 85.9703 16.2586 85.8463 16.2586C85.411 16.258 84.9853 16.3865 84.6231 16.6279C84.2608 16.8693 83.9783 17.2127 83.8113 17.6147C83.6443 18.0167 83.6003 18.4592 83.6849 18.8862C83.7694 19.3132 83.9787 19.7055 84.2863 20.0136C84.5939 20.3216 84.9859 20.5314 85.4128 20.6166C85.8397 20.7017 86.2822 20.6584 86.6845 20.4919C87.0867 20.3255 87.4305 20.0435 87.6724 19.6816C87.9143 19.3197 88.0434 18.8942 88.0434 18.4589C88.0434 18.3349 88.0927 18.216 88.1803 18.1283C88.268 18.0407 88.3869 17.9914 88.5109 17.9914C88.6349 17.9914 88.7538 18.0407 88.8414 18.1283C88.9291 18.216 88.9784 18.3349 88.9784 18.4589C88.9775 19.2893 88.6473 20.0855 88.0601 20.6727C87.4729 21.2599 86.6767 21.5901 85.8463 21.5909Z" fill="#263238"/>
<path d="M85.7715 20.2976C82.9075 20.2976 82.7517 14.1083 82.7485 12.8679V12.8305C82.7485 11.584 82.895 5.35101 85.7715 5.35101C88.648 5.35101 88.8568 12.0764 88.8568 12.843L86.3636 12.8898C86.357 11.4475 86.1472 10.0133 85.7404 8.62954C85.3718 9.99858 85.1997 11.4131 85.2292 12.8305V12.8679C85.206 14.2951 85.3875 15.7183 85.7684 17.0939C85.7996 17.0035 85.8276 16.9038 85.8588 16.7822L86.0551 16.106L87.7941 16.6139C87.8803 16.639 87.9608 16.6808 88.0308 16.737C88.1008 16.7932 88.1591 16.8627 88.2022 16.9414C88.2453 17.0202 88.2725 17.1067 88.2822 17.1959C88.2918 17.2852 88.2838 17.3755 88.2585 17.4616C87.7474 19.3346 86.909 20.2976 85.7715 20.2976Z" fill="#BFBFBF" stroke="#263238" stroke-linecap="round" stroke-linejoin="round"/>
<path d="M88.511 18.9264C88.387 18.9264 88.2681 18.8771 88.1804 18.7895C88.0927 18.7018 88.0435 18.5829 88.0435 18.4589C88.0435 17.8759 87.8121 17.3167 87.4002 16.9042C86.9882 16.4917 86.4294 16.2595 85.8464 16.2587C85.7224 16.2587 85.6035 16.2094 85.5158 16.1218C85.4282 16.0341 85.3789 15.9152 85.3789 15.7912C85.3789 15.6672 85.4282 15.5483 85.5158 15.4606C85.6035 15.373 85.7224 15.3237 85.8464 15.3237C86.6771 15.3254 87.4733 15.6563 88.0604 16.244C88.6475 16.8317 88.9776 17.6282 88.9784 18.4589C88.9784 18.5829 88.9292 18.7018 88.8415 18.7895C88.7538 18.8771 88.635 18.9264 88.511 18.9264Z" fill="#263238"/>
<path d="M102.109 91.5539C103.556 85.2586 99.6266 78.9817 93.3313 77.5341C87.036 76.0865 80.7591 80.0163 79.3115 86.3117C77.8639 92.607 81.7938 98.8838 88.0891 100.331C94.3844 101.779 100.661 97.8492 102.109 91.5539Z" fill="#715FE0" stroke="#263238" stroke-miterlimit="10"/>
<path d="M97.536 88.938C97.5364 89.0814 97.5085 89.2234 97.4538 89.3559C97.3991 89.4884 97.3188 89.6088 97.2174 89.7102C97.1161 89.8116 96.9957 89.8919 96.8631 89.9466C96.7306 90.0012 96.5886 90.0292 96.4452 90.0288H91.8048V94.6723C91.8048 94.9616 91.6899 95.239 91.4853 95.4436C91.2808 95.6482 91.0033 95.7631 90.714 95.7631C90.4248 95.7631 90.1473 95.6482 89.9428 95.4436C89.7382 95.239 89.6233 94.9616 89.6233 94.6723V90.0194H84.9829C84.6936 90.0194 84.4161 89.9045 84.2116 89.6999C84.007 89.4954 83.8921 89.2179 83.8921 88.9286C83.8921 88.6394 84.007 88.3619 84.2116 88.1574C84.4161 87.9528 84.6936 87.8379 84.9829 87.8379H89.6233V83.2068C89.6233 82.9175 89.7382 82.6401 89.9428 82.4355C90.1473 82.2309 90.4248 82.116 90.714 82.116C91.0033 82.116 91.2808 82.2309 91.4853 82.4355C91.6899 82.6401 91.8048 82.9175 91.8048 83.2068V87.8379H96.4452C96.5893 87.8379 96.7319 87.8664 96.8648 87.9218C96.9978 87.9772 97.1184 88.0584 97.2198 88.1607C97.3213 88.2629 97.4014 88.3843 97.4557 88.5177C97.5099 88.6511 97.5372 88.794 97.536 88.938Z" fill="white"/>
<path d="M34.6301 50.6894C34.6301 50.6894 35.59 56.2056 35.4061 56.8912C35.2223 57.377 34.8965 57.7961 34.4712 58.0942L36.6216 63.2052V59.2068C36.6216 59.2068 37.2137 49.9508 37.2854 45.8059C37.3158 43.7483 37.2357 41.6906 37.0454 39.6415L36.0263 39.8067C36.0263 39.8067 34.8576 48.4674 34.6301 50.6894Z" fill="white" stroke="#263238" stroke-linecap="round" stroke-linejoin="round"/>
<path d="M30.1363 117.731L29.538 113.331L25.5645 113.019L26.0288 117.828C26.6137 118.302 27.3479 118.552 28.1003 118.534C28.8528 118.516 29.5744 118.232 30.1363 117.731Z" fill="white" stroke="#263238" stroke-linecap="round" stroke-linejoin="round"/>
<path d="M25.77 117.27C25.6391 118.354 25.5113 119.495 25.823 120.533C26.1346 121.57 27.0478 122.446 27.9453 122.191C28.151 122.134 28.3473 122.019 28.5686 121.982C28.9675 121.913 29.3602 122.125 29.7342 122.309C32.003 123.428 37.918 122.948 38.3855 122.702C38.5204 122.621 38.6301 122.504 38.7024 122.364C38.7748 122.224 38.8069 122.067 38.7953 121.91C38.7836 121.753 38.7287 121.602 38.6365 121.475C38.5444 121.347 38.4187 121.247 38.2733 121.187C35.5589 119.9 35.7334 120.224 31.2519 117.684C30.4478 117.229 29.971 117.447 29.5659 117.865C29.3 118.125 28.977 118.32 28.6226 118.433C28.2682 118.546 27.8922 118.575 27.5247 118.517C27.1571 118.46 26.8082 118.317 26.5057 118.1C26.2032 117.883 25.9555 117.599 25.7825 117.27H25.77Z" fill="#263238"/>
<path d="M29.8744 107.783C27.8456 110.304 25.3056 113.533 25.3056 113.533L23.4731 109.588C23.4731 109.588 27.7302 104.533 29.9149 99.2003C29.9149 100.244 29.999 101.382 30.0271 102.033C30.1019 104.003 29.9055 105.823 29.8744 107.783Z" fill="#263238"/>
<path d="M25.5674 118.463C25.558 118.63 25.4921 118.788 25.3805 118.912C25.0314 119.224 24.645 118.66 24.352 118.289C23.4516 117.092 22.6402 115.83 21.9243 114.515L21.6968 112.486L21.0299 112.763H20.9457L20.7525 112.424C19.2753 109.843 21.0392 109.341 22.9184 109.426C23.1335 109.426 23.5823 109.482 24.3053 110.868C24.4997 111.188 24.6735 111.521 24.8257 111.863C25.6637 113.956 25.92 116.236 25.5674 118.463Z" fill="#263238"/>
<path d="M37.1702 65.3587C37.1006 64.2391 37.0902 63.1167 37.139 61.996C37.1595 61.1222 36.9778 60.2555 36.608 59.4635C36.2383 58.6715 35.6905 57.9757 35.0074 57.4304C35.0074 57.4304 33.3743 59.6119 28.709 59.6119H28.4752C26.3975 59.5617 24.337 59.2197 22.3545 58.5959C21.5142 58.3328 20.69 58.0206 19.8862 57.661C19.8862 57.661 19.9797 63.8939 20.1761 69.6875C20.3444 74.2843 21.5286 94.9309 22.2766 101.5C22.8999 106.973 24.751 112.377 24.9723 114.711C25.0783 115.811 27.5621 115.468 28.7495 115.045C30.3077 114.487 30.4168 114.156 30.4168 114.156C30.5196 112.461 30.0678 109.482 30.1052 107.796C34.356 102.498 40.9692 94.1144 41.1562 92.8211C42.5991 82.7735 37.326 66.3996 37.1702 65.3587ZM33.1032 91.2254C32.9941 91.9048 31.5824 95.4638 29.9867 99.3501C29.9867 97.6298 30.7471 95.8378 30.9715 93.061C31.3985 87.7194 30.314 81.8417 30.4667 77.5503C31.3299 81.2402 33.3027 89.9508 33.1032 91.213V91.2254Z" fill="#263238"/>
<path d="M39.7755 94.4011C39.0953 94.9803 38.3011 95.4103 37.4443 95.6633" stroke="#BFBFBF" stroke-linecap="round" stroke-linejoin="round"/>
<path d="M40.7294 93.3944C40.5954 93.5715 40.4519 93.7411 40.2993 93.9024" stroke="#BFBFBF" stroke-linecap="round" stroke-linejoin="round"/>
<path d="M31.4297 61.5099C31.8566 63.7818 31.9252 66.8515 30.9933 68.9645C30.7606 69.3262 30.4832 69.6571 30.1675 69.9493" stroke="#BFBFBF" stroke-linecap="round" stroke-linejoin="round"/>
<path d="M24.0684 61.2668C23.816 62.3575 23.361 64.1557 22.7689 65.1063C22.2008 66.0878 21.2676 66.8048 20.1729 67.1008" stroke="#BFBFBF" stroke-linecap="round" stroke-linejoin="round"/>
<path d="M29.8213 63.5667C30.1485 67.2504 30.1329 70.825 30.4851 77.0174" stroke="#BFBFBF" stroke-linecap="round" stroke-linejoin="round"/>
<path d="M29.6221 61.6594C29.6564 61.9524 29.6906 62.2422 29.7218 62.5289" stroke="white" stroke-linecap="round" stroke-linejoin="round"/>
<path d="M33.1187 90.2188C33.3311 91.7359 33.7603 93.2147 34.3933 94.6099" stroke="#BFBFBF" stroke-linecap="round" stroke-linejoin="round"/>
<path d="M33.3838 91.646C33.1103 93.8083 33.2296 96.0022 33.736 98.122" stroke="#BFBFBF" stroke-linecap="round" stroke-linejoin="round"/>
<path d="M21.1328 66.7268C21.7031 75.2223 22.4947 81.6859 23.1274 88.137" stroke="#BFBFBF" stroke-linecap="round" stroke-linejoin="round"/>
<path d="M23.1489 90.3777C23.1489 90.1128 23.1489 89.8417 23.1489 89.5706" stroke="#BFBFBF" stroke-linecap="round" stroke-linejoin="round"/>
<path d="M26.7953 115.3C26.3559 113.938 23.3204 103.458 23.1771 99.1101C23.0805 96.2273 22.9652 94.1736 23.1116 91.3875" stroke="#BFBFBF" stroke-linecap="round" stroke-linejoin="round"/>
<path d="M30.2421 98.3684L30.1299 107.752" stroke="#BFBFBF" stroke-linecap="round" stroke-linejoin="round"/>
<path d="M36.4129 33.8043C35.6836 30.0646 33.1998 29.5784 32.6357 29.4008C28.7495 28.176 26.0911 27.9703 23.0183 29.3166C19.4188 30.8998 18.6957 30.9559 17.5863 35.0634C16.963 37.3104 18.1877 44.8772 18.917 48.1713C19.4998 50.7922 19.3533 57.583 20.4752 58.6707C22.557 60.687 25.5083 60.3972 28.363 59.8923C30.8344 59.4529 34.9606 58.867 35.8987 56.539C36.0327 56.2055 36.0202 54.7969 35.9734 52.765C35.8239 46.6162 36.2352 43.0883 36.1729 39.1522L37.0081 38.7658C37.0081 38.7658 37.0798 37.2106 36.4129 33.8043Z" fill="#715FE0"/>
<mask id="mask0_134_623" style="mask-type:luminance" maskUnits="userSpaceOnUse" x="17" y="28" width="21" height="33">
<path d="M36.4129 33.8043C35.6836 30.0646 33.1998 29.5784 32.6357 29.4008C28.7495 28.176 26.0911 27.9703 23.0183 29.3166C19.4188 30.8998 18.6957 30.9559 17.5863 35.0634C16.963 37.3104 18.1877 44.8772 18.917 48.1713C19.4998 50.7922 19.3533 57.583 20.4752 58.6707C22.557 60.687 25.5083 60.3972 28.363 59.8923C30.8344 59.4529 34.9606 58.867 35.8987 56.539C36.0327 56.2055 36.0202 54.7969 35.9734 52.765C35.8239 46.6162 36.2352 43.0883 36.1729 39.1522L37.0081 38.7658C37.0081 38.7658 37.0798 37.2106 36.4129 33.8043Z" fill="white"/>
</mask>
<g mask="url(#mask0_134_623)">
<path opacity="0.2" d="M18.4246 41.8012C18.5337 43.0727 18.113 44.4378 18.6646 45.5815C18.81 45.9058 19.0485 46.1796 19.3498 46.3683C19.651 46.5569 20.0015 46.6519 20.3568 46.6411C20.7994 46.5944 21.217 46.3295 21.6595 46.3793C22.2267 46.4385 22.6163 46.959 22.9497 47.4233C23.6471 48.4986 24.5404 49.4332 25.5831 50.1783C26.6521 50.8795 28.0109 51.2317 29.2357 50.8639C28.9121 51.3935 28.5474 51.8968 28.1449 52.3692C28.8243 52.1167 30.3264 51.0229 31.6416 51.0166L35.8395 50.9886C36.1106 50.1097 35.4811 49.1467 34.6459 48.7572C33.8106 48.3676 32.8445 48.4175 31.9314 48.5422C31.0183 48.6668 30.0958 48.8538 29.1858 48.7291C27.967 48.4992 26.8693 47.8444 26.088 46.8811C25.3167 45.9225 24.6609 44.8764 24.134 43.7646C23.9065 44.1947 23.277 44.2477 22.8531 44.0139C22.4527 43.7386 22.1185 43.3777 21.8745 42.9574C21.0424 41.7825 19.4499 39.8254 17.9821 39.5075C17.739 40.1339 18.3654 41.1094 18.4246 41.8012Z" fill="black"/>
<path opacity="0.2" d="M31.3301 48.0435C32.9569 47.4202 34.0476 45.8059 34.5182 44.123C34.7987 43.107 35.4314 40.3177 34.727 39.4482C34.2004 40.9099 33.8357 42.4245 33.2654 43.8768C32.9725 44.6185 32.6608 45.3508 32.3305 46.0583C32.1622 46.4042 31.6729 47.9095 31.3301 48.0435Z" fill="black"/>
<path opacity="0.2" d="M19.5775 52.7868C20.6215 55.3018 23.0274 57.0875 25.639 57.8573C28.2506 58.6271 31.2923 58.599 33.9694 58.0942C30.5194 60.0482 25.9444 60.2383 22.2514 58.7954C21.5876 58.5367 20.9269 58.8359 20.4376 58.3154C19.3157 57.1249 19.3656 54.6629 19.5027 53.0174L18.8794 53.0455" fill="black"/>
<path opacity="0.2" d="M26.4433 33.1125C26.5618 33.2905 26.7378 33.4225 26.9419 33.4865C27.0609 33.4983 27.181 33.479 27.2903 33.4304C27.3996 33.3817 27.4943 33.3055 27.5652 33.2091C27.7066 33.013 27.8296 32.8044 27.9329 32.5858C28.2302 32.0576 28.6905 31.64 29.245 31.3953C29.5461 32.1193 30.0012 32.7691 30.5788 33.2995H30.772C31.0737 32.5736 31.1592 31.776 31.0182 31.0026C30.9916 31.1018 30.9442 31.1942 30.8792 31.2737C30.8142 31.3532 30.733 31.418 30.6411 31.4639C30.4947 31.1478 30.3014 30.8558 30.0677 30.5975C29.9495 30.4696 29.8042 30.3696 29.6425 30.3049C29.4807 30.2402 29.3066 30.2124 29.1328 30.2235C28.9858 30.2471 28.8437 30.2944 28.7121 30.3637C27.8457 30.7845 27.2348 31.6103 26.7767 32.4424C26.1327 31.9694 25.4615 31.5344 24.7666 31.1397C25.2808 31.8067 25.8792 32.4518 26.4433 33.1125Z" fill="black"/>
</g>
<path d="M36.4129 33.8043C35.6836 30.0646 33.1998 29.5784 32.6357 29.4008C28.7495 28.176 26.0911 27.9703 23.0183 29.3166C19.4188 30.8998 18.6957 30.9559 17.5863 35.0634C16.963 37.3104 18.1877 44.8772 18.917 48.1713C19.4998 50.7922 19.3533 57.583 20.4752 58.6707C22.557 60.687 25.5083 60.3972 28.363 59.8923C30.8344 59.4529 34.9606 58.867 35.8987 56.539C36.0327 56.2055 36.0202 54.7969 35.9734 52.765C35.8239 46.6162 36.2352 43.0883 36.1729 39.1522L37.0081 38.7658C37.0081 38.7658 37.0798 37.2106 36.4129 33.8043Z" stroke="#263238" stroke-miterlimit="10"/>
<path d="M30.0304 28.5718C30.4982 28.5712 30.9545 28.4271 31.3379 28.1591C31.7213 27.891 32.0133 27.5119 32.1745 27.0728C32.6233 25.8262 32.8321 21.8558 32.8321 21.1328C32.8321 20.4098 32.2618 18.9513 32.1465 18.1223C32.0312 17.2933 31.5232 15.5668 31.5232 15.5668L30.0117 14.1083L27.933 14.9871L24.9911 15.3767C24.9911 15.3767 24.4426 20.148 23.6915 19.3813C22.9404 18.6147 20.6716 19.5995 20.8119 21.407C20.9521 23.2146 23.2645 23.1897 23.2645 23.1897C23.2645 23.1897 23.838 23.7538 24.1808 25.633C24.3952 26.8017 24.4026 27.9989 24.2026 29.1702C24.5732 29.6259 25.0539 29.9795 25.5992 30.1976C26.1445 30.4157 26.7365 30.4912 27.3191 30.4168C29.3105 30.1643 29.5006 28.8118 29.5006 28.8118C29.5006 28.8118 29.5255 28.5843 30.0304 28.5718Z" fill="white"/>
<path d="M23.2985 20.55C22.856 19.9267 21.2666 18.917 20.8801 21.0299C20.4937 23.1429 22.6035 23.0089 23.7099 23.2707C24.5389 24.6513 26.2031 26.9699 27.6055 27.6961C28.475 28.148 29.5626 28.6715 30.5879 28.5531C31.6133 28.4347 32.0215 27.8207 32.221 26.8515C32.4972 25.5503 32.6774 24.2306 32.7601 22.9029C32.81 22.0584 32.9565 20.9271 32.6136 20.1262C32.1212 18.97 32.2272 17.633 31.8501 16.4519C31.473 15.2707 30.4508 14.4043 29.5034 13.647" stroke="#263238" stroke-linecap="round" stroke-linejoin="round"/>
<path d="M27.0977 19.7771C27.7459 19.3751 28.31 19.2006 28.8554 19.7771C29.0081 19.7771 29.3603 19.1538 29.3603 19.1538C29.1994 18.9578 28.9825 18.8154 28.7386 18.7458C28.4947 18.6762 28.2354 18.6826 27.9952 18.7643C27.0447 18.9949 27.0977 19.7771 27.0977 19.7771Z" fill="#263238"/>
<path d="M28.5405 24.4674C28.9862 25.1094 29.4599 25.3057 30.2951 25.2341" stroke="#263238" stroke-linecap="round" stroke-linejoin="round"/>
<path d="M28.2196 20.7619C28.3629 20.7619 28.5032 20.9769 28.5312 21.273C28.5593 21.5691 28.4595 21.8184 28.3131 21.8277C28.1666 21.8371 28.0295 21.6096 28.0014 21.3166C27.9734 21.0237 28.0855 20.7744 28.2196 20.7619Z" fill="#263238"/>
<path d="M31.3798 20.3443C31.5294 20.3443 31.6696 20.5562 31.6914 20.8523C31.7133 21.1483 31.6229 21.4008 31.4733 21.4132C31.3237 21.4257 31.1866 21.1951 31.1616 20.9021C31.1367 20.6092 31.2333 20.3599 31.3798 20.3443Z" fill="#263238"/>
<path d="M31.0307 19.4343C31.0307 19.4343 31.7475 19.0853 32.0342 19.3377C32.0342 19.3377 32.2399 18.624 31.6977 18.4588C31.5623 18.4026 31.4109 18.3986 31.2727 18.4475C31.1346 18.4964 31.0195 18.5949 30.9497 18.7238L30.9715 19.4935L31.0307 19.4343Z" fill="#263238"/>
<path d="M29.5438 28.5095C29.5625 28.5095 29.4098 29.6968 28.9205 30.0303C28.5932 30.3178 28.1718 30.4753 27.7362 30.4728C26.7296 30.5601 24.7382 30.0334 24.2115 29.1702C24.4049 28.3183 24.4356 27.4374 24.3019 26.5741C24.2115 25.4555 24.0089 24.3488 23.6973 23.2707C23.6973 23.2707 26.3058 28.123 29.5438 28.5095Z" stroke="#263238" stroke-linecap="round" stroke-linejoin="round"/>
<path d="M24.4515 28.2758C23.7658 28.4378 23.2049 28.4752 23.0553 28.9458C22.9556 29.2574 23.1831 29.5317 23.4262 29.7904C24.4368 30.8384 25.6011 31.7264 26.8792 32.4238C27.4399 31.5796 28.1286 30.8278 28.9205 30.1955C27.4397 29.9092 26.0339 29.3204 24.7912 28.4659L24.4515 28.2758Z" fill="white" stroke="#263238" stroke-linecap="round" stroke-linejoin="round"/>
<path d="M29.5626 28.603C29.7633 28.6076 29.9601 28.6594 30.1371 28.7542C30.3142 28.8489 30.4664 28.9839 30.5817 29.1484C30.8746 29.4818 31.1115 30.8499 30.8123 31.7194C30.1454 30.9466 29.734 29.7779 28.771 30.0802C29.5252 29.8433 29.5626 28.603 29.5626 28.603Z" fill="white" stroke="#263238" stroke-linecap="round" stroke-linejoin="round"/>
<path d="M24.3457 24.2617C24.3457 24.2617 25.611 28.9177 27.0477 29.3603C27.4701 29.4792 27.9177 29.474 28.3372 29.3452C28.7567 29.2164 29.1302 28.9696 29.4131 28.6341C26.761 27.7678 24.3457 24.2617 24.3457 24.2617Z" fill="#263238"/>
<path d="M25.5456 18.9014C24.6698 19.4343 24.0652 21.0299 24.6948 21.8652C25.3243 22.7004 24.6761 23.1959 24.3831 23.4795C24.1599 23.0342 23.9652 22.5752 23.8003 22.1051C23.6102 21.5504 23.6289 21.0642 23.3173 20.5687C23.1459 20.2945 22.3543 19.855 22.0395 19.7709C21.5752 19.6462 21.1046 20.148 20.955 20.6061C20.8481 21.0779 20.8631 21.5691 20.9986 22.0334C20.3754 21.3634 20.3255 21.1764 20.2632 20.2726C20.2701 19.7793 20.2472 19.286 20.1946 18.7954C20.0949 18.2843 19.8362 17.8106 19.7676 17.2964C19.6492 16.3895 20.1323 15.5262 20.5997 14.7409C21.0082 13.961 21.542 13.2535 22.1798 12.6466C22.7726 12.1809 23.4409 11.8204 24.1556 11.5808C25.7513 10.9793 27.4778 10.5991 29.1638 10.8547C30.8498 11.1102 32.4922 12.1012 33.2152 13.6283C33.4918 14.1411 33.5747 14.7361 33.4489 15.305C33.3676 15.5915 33.2115 15.8512 32.9967 16.0575C32.7819 16.2638 32.5161 16.4093 32.2266 16.4791C31.937 16.5488 31.6341 16.5404 31.349 16.4545C31.0638 16.3687 30.8065 16.2086 30.6036 15.9906C30.9507 16.0775 31.3172 16.0423 31.6414 15.8909C31.8012 15.8124 31.9368 15.6922 32.0339 15.543C32.131 15.3938 32.186 15.2211 32.193 15.0432C32.1862 14.9259 32.1541 14.8114 32.0988 14.7077C32.0436 14.6039 31.9665 14.5134 31.8729 14.4423C31.7793 14.3712 31.6714 14.3213 31.5567 14.2959C31.4419 14.2705 31.323 14.2703 31.2082 14.2952C31.0981 14.3348 30.9986 14.3993 30.9174 14.4837C30.8363 14.568 30.7758 14.67 30.7405 14.7815C30.7052 14.8931 30.6961 15.0113 30.714 15.127C30.7319 15.2427 30.7762 15.3526 30.8436 15.4483L30.3044 15.1772L30.2452 15.5356L29.6219 15.0962L29.5752 15.4078C29.2884 15.2925 27.2752 15.4078 26.5865 15.4826C26.2412 15.5163 25.8999 15.583 25.5674 15.6821C25.1934 15.7943 25.0875 15.8317 25.0189 16.2243C24.8257 17.3556 24.5857 18.2687 25.5456 18.9014Z" fill="#263238"/>
<path d="M25.7855 13.3229C25.727 13.3763 25.6817 13.4424 25.6528 13.5161C25.6239 13.5898 25.6124 13.6691 25.619 13.748C25.6256 13.8269 25.6503 13.9032 25.691 13.971C25.7317 14.0389 25.7875 14.0965 25.854 14.1394" stroke="#BFBFBF" stroke-linecap="round" stroke-linejoin="round"/>
<path d="M26.4184 13.46C26.379 13.5179 26.3579 13.5863 26.3579 13.6564C26.3579 13.7264 26.379 13.7948 26.4184 13.8527" stroke="#BFBFBF" stroke-linecap="round" stroke-linejoin="round"/>
<path d="M27.0695 13.4569C27.0352 13.5847 26.9978 13.7156 26.9604 13.8434" stroke="#BFBFBF" stroke-linecap="round" stroke-linejoin="round"/>
<path d="M28.7087 13.139C28.5838 13.2342 28.4903 13.3647 28.4403 13.5136C28.3903 13.6625 28.3861 13.8229 28.4282 13.9743" stroke="#BFBFBF" stroke-linecap="round" stroke-linejoin="round"/>
<path d="M29.139 14.0366C29.1185 13.8366 29.1728 13.6362 29.2913 13.4739C29.4099 13.3117 29.5843 13.199 29.781 13.1577" stroke="#BFBFBF" stroke-linecap="round" stroke-linejoin="round"/>
<path d="M29.7339 14.102C29.8695 13.8197 30.0816 13.5809 30.346 13.4129C30.6104 13.2449 30.9166 13.1544 31.2298 13.1515" stroke="#BFBFBF" stroke-linecap="round" stroke-linejoin="round"/>
<path d="M30.2485 14.3763C30.3557 14.1921 30.5041 14.0353 30.6822 13.9184C30.8603 13.8015 31.0632 13.7275 31.2747 13.7024C31.4863 13.6773 31.7008 13.7018 31.9013 13.7738C32.1018 13.8459 32.2829 13.9636 32.4301 14.1176" stroke="#BFBFBF" stroke-linecap="round" stroke-linejoin="round"/>
<path d="M24.0778 13.9182C24.0361 13.9804 24.0086 14.051 23.9974 14.1251C23.9862 14.1992 23.9915 14.2748 24.013 14.3466C24.0344 14.4184 24.0715 14.4845 24.1215 14.5403C24.1715 14.5961 24.2332 14.6401 24.3022 14.6692" stroke="#BFBFBF" stroke-linecap="round" stroke-linejoin="round"/>
<path d="M25.0094 12.9832C24.8278 13.2847 24.7646 13.6429 24.8319 13.9883C24.8993 14.3337 25.0924 14.6419 25.374 14.8531" stroke="#BFBFBF" stroke-linecap="round" stroke-linejoin="round"/>
<path d="M23.2797 14.4448C23.263 14.4961 23.2582 14.5504 23.2656 14.6038C23.273 14.6571 23.2925 14.7081 23.3225 14.7529C23.3525 14.7976 23.3923 14.8349 23.4389 14.862C23.4855 14.8891 23.5376 14.9052 23.5913 14.9092" stroke="#BFBFBF" stroke-linecap="round" stroke-linejoin="round"/>
<path d="M22.5692 14.8874C22.5513 14.9559 22.5599 15.0288 22.5934 15.0912C22.627 15.1537 22.6829 15.2011 22.75 15.224" stroke="#BFBFBF" stroke-linecap="round" stroke-linejoin="round"/>
<path d="M21.94 15.3299C21.9329 15.3493 21.93 15.37 21.9316 15.3906C21.9332 15.4112 21.9392 15.4312 21.9493 15.4493C21.9594 15.4674 21.9732 15.483 21.9899 15.4952C22.0066 15.5074 22.0257 15.5159 22.046 15.52" stroke="#BFBFBF" stroke-linecap="round" stroke-linejoin="round"/>
<path d="M34.9046 38.4697C35.0573 43.8269 34.4153 49.4304 28.0483 52.3941" stroke="#263238" stroke-linecap="round" stroke-linejoin="round"/>
<path d="M25.4399 54.8375C28.2142 55.595 31.1101 55.8004 33.9635 55.4421" stroke="#263238" stroke-linecap="round" stroke-linejoin="round"/>
<path d="M23.2427 54.1113C23.6073 54.2516 23.975 54.3856 24.3459 54.5071" stroke="#263238" stroke-linecap="round" stroke-linejoin="round"/>
<path d="M56.8509 46.9496C56.8626 46.818 56.8425 46.6855 56.7923 46.5633C56.7421 46.441 56.6634 46.3326 56.5626 46.2471C56.4618 46.1616 56.342 46.1015 56.2133 46.0719C56.0845 46.0423 55.9505 46.0441 55.8225 46.077C55.8225 46.1082 55.7539 46.1175 55.7602 46.1456C56.001 46.334 56.1897 46.5807 56.3087 46.8624C56.4894 46.8748 56.6702 46.9434 56.8509 46.9496Z" stroke="#263238" stroke-linecap="round" stroke-linejoin="round"/>
<path d="M56.5204 47.5013C56.3177 46.9221 56.0288 46.3768 55.6633 45.8839C54.5196 45.005 55.0182 44.7214 52.8024 44.3256C52.8024 44.3506 48.5204 45.432 46.1893 46.5072C46.1893 46.5072 30.8593 44.6934 30.8593 44.5469L28.4908 41.4304L21.8247 42.4682C21.8247 42.4682 25.3806 48.243 28.0576 49.7234C28.0576 49.7234 40.8352 49.4117 44.9801 49.3899C47.2333 49.3899 48.4986 50.5368 50.7144 48.0592C50.7144 48.0592 51.9236 49.2528 52.6435 48.91C53.1172 48.7791 51.5776 47.4826 51.051 47.0588C51.2192 47.1554 53.5878 48.7915 54.906 48.8383C54.9688 48.8415 55.0308 48.8239 55.0824 48.788C55.134 48.7522 55.1722 48.7003 55.1911 48.6404C55.21 48.5805 55.2085 48.516 55.1868 48.4571C55.1651 48.3981 55.1244 48.3481 55.0712 48.3147C55.0712 48.3147 51.7927 46.476 51.9547 46.2423C51.9547 46.2423 53.7716 46.8967 54.0615 47.2987C55.2738 48.9629 56.0934 48.3802 56.2087 48.2804C56.4456 48.0748 56.1152 47.8878 56.1152 47.6945C56.0903 47.6977 56.5765 47.8379 56.5204 47.5013Z" fill="white" stroke="#263238" stroke-linecap="round" stroke-linejoin="round"/>
<path d="M53.0767 45.4319C53.7249 45.6874 54.6349 46.0926 55.0681 46.638C55.9095 47.6976 56.0903 47.6976 56.0903 47.6976" stroke="#263238" stroke-linecap="round" stroke-linejoin="round"/>
<path d="M19.1226 31.4919C19.1226 31.4919 17.0595 33.3618 17.6423 38.3046C17.9539 40.8227 20.9738 45.005 20.9738 45.005L29.1919 42.3965C29.1919 42.3965 27.2504 38.0085 25.1935 35.0447" stroke="#263238" stroke-miterlimit="10"/>
<path d="M26.5273 34.9543C27.0607 36.1844 27.3659 37.5013 27.428 38.8406" stroke="#263238" stroke-linecap="round" stroke-linejoin="round"/>
<path d="M31.1587 19.2504C31.1587 19.2691 30.3609 20.497 30.6102 20.8398C31.6012 22.1425 31.7384 23.6821 31.3052 23.7537C30.7318 23.8441 30.3048 23.3829 30.0586 23.2146" stroke="#263238" stroke-linecap="round" stroke-linejoin="round"/>
<path d="M18.5305 43.2286L20.1573 45.2668L29.195 42.3966L28.0856 40.1184C28.0856 40.1184 18.3622 43.2286 18.5305 43.2286Z" fill="white" stroke="#263238" stroke-linecap="round" stroke-linejoin="round"/>
<path d="M29.3604 30.2329C29.3604 30.1799 30.4698 36.176 30.4698 36.176L29.7312 36.3474" stroke="#263238" stroke-linecap="round" stroke-linejoin="round"/>
<path d="M36.1914 38.1706L37.3788 37.7311L37.4505 39.5823L36.1665 40.0591L36.1914 38.1706Z" fill="white" stroke="#263238" stroke-linecap="round" stroke-linejoin="round"/>
<path d="M35.5342 34.9512C35.8616 36.6203 36.0802 38.3088 36.1886 40.0062L35.5342 34.9512Z" fill="white"/>
<path d="M35.5342 34.9512C35.8616 36.6203 36.0802 38.3088 36.1886 40.0062" stroke="#263238" stroke-linecap="round" stroke-linejoin="round"/>
<path d="M35.1538 32.9162C35.2224 33.3089 35.2909 33.6828 35.3626 34.0537L35.1538 32.9162Z" fill="white"/>
<path d="M35.1538 32.9162C35.2224 33.3089 35.2909 33.6828 35.3626 34.0537" stroke="#263238" stroke-linecap="round" stroke-linejoin="round"/>
</g>
<defs>
<clipPath id="clip0_134_623">
<rect width="121.935" height="125.41" fill="white"/>
</clipPath>
</defs>
</svg>
