<svg width="99" height="108" viewBox="0 0 99 108" fill="none" xmlns="http://www.w3.org/2000/svg">
<path d="M42.7791 13.3151C38.3323 22.4237 12.7242 9.63687 5.74718 20.5594C-1.09284 31.2681 10.0716 40.32 5.38786 64.7626C2.86866 77.9093 -1.73905 82.4852 1.07346 90.5793C3.97447 98.9289 12.5797 104.714 20.3082 106.738C36.2513 110.914 43.1966 97.7094 61.1154 102.28C67.2814 103.853 69.3806 106.162 75.8563 106.181C77.4071 106.185 89.4924 106.231 95.8101 98.937C105.612 87.6211 89.4079 72.637 92.4841 37.9118C92.9983 32.1079 94.0634 25.612 90.5968 18.8396C85.7932 9.45512 75.6775 6.25582 71.7792 4.93415C62.2965 1.71973 47.8542 1.25964 43.9887 8.15372C42.7391 10.3823 43.7803 11.2668 42.7791 13.3151Z" fill="#E4EAEF"/>
<path d="M35.7769 66.851C33.648 66.7102 31.6377 65.3166 30.7731 63.1706L18.5782 32.9071C17.4681 30.1513 18.7209 27.0327 21.39 25.9267C24.078 24.813 28.2685 26.1247 29.4075 28.9096L41.9182 59.5013C43.0958 62.3857 41.7676 65.5397 38.9623 66.5318C38.2715 66.7747 36.4791 66.8975 35.7769 66.851Z" fill="url(#paint0_linear_134_524)"/>
<path style="mix-blend-mode:multiply" opacity="0.3" d="M21.39 25.9265C24.078 24.8127 28.2686 26.1244 29.4076 28.9094L40.8464 56.8805C38.932 56.3725 36.6658 56.4182 34.4902 54.4473C30.8688 51.1662 32.6504 46.9634 29.7801 43.2166C28.4681 41.5049 26.0402 39.7025 21.0982 39.1613L18.5782 32.9079C17.4682 30.1514 18.7206 27.0325 21.39 25.9265Z" fill="url(#paint1_linear_134_524)"/>
<path d="M9.82829 47.8762L2.74633 94.816C2.61181 95.721 3.23661 96.5387 4.03377 96.4997L39.4796 94.7713L9.82829 47.8762Z" fill="url(#paint2_linear_134_524)"/>
<path d="M74.6448 48.8519L11.1727 46.8242C10.245 46.7947 9.63836 47.5273 9.81963 48.4604L20.1155 101.884C20.2939 102.818 21.1785 103.519 22.0856 103.451L84.272 98.8097C84.9757 98.7574 85.4164 98.0514 85.2586 97.2333L76.2288 50.3756C76.071 49.5557 75.3627 48.8748 74.6448 48.8519Z" fill="url(#paint3_linear_134_524)"/>
<path d="M75.0052 48.8518L11.5331 46.8241C10.6053 46.7946 9.99871 47.5272 10.18 48.4603L20.4759 101.884C20.6543 102.817 21.5389 103.519 22.4459 103.451L84.6324 98.8096C85.336 98.7572 85.7767 98.0513 85.619 97.2332L76.5891 50.3755C76.4314 49.5556 75.7238 48.8746 75.0052 48.8518Z" fill="url(#paint4_linear_134_524)"/>
<g style="mix-blend-mode:multiply" opacity="0.3">
<path d="M58.4404 77.1606C45.9475 70.1474 34.1088 75.5992 25.5845 66.6034C20.3356 61.0641 19.3722 53.2207 19.5295 47.0795L11.5331 46.8236C10.6053 46.7941 9.99871 47.5267 10.18 48.4598L20.4758 101.885C20.6543 102.818 21.5388 103.519 22.4459 103.451L76.4016 99.4226C70.5047 86.1966 63.8556 80.2006 58.4404 77.1606Z" fill="url(#paint5_linear_134_524)"/>
</g>
<path d="M82.4984 97.0283L23.5908 101.182C22.612 101.251 21.6583 100.489 21.4638 99.4803L12.2916 51.8853C12.0971 50.8759 12.7505 50.0788 13.7474 50.1046L73.7559 51.6633C74.5409 51.6836 75.3123 52.4221 75.484 53.3128L83.5785 95.3166C83.7505 96.208 83.2678 96.9741 82.4984 97.0283Z" fill="#E4EAEF"/>
<path d="M82.7772 97.0119L23.9402 101.161C22.9629 101.23 22.0101 100.468 21.8157 99.4598L12.6495 51.8962C12.4551 50.8875 13.1077 50.0897 14.1032 50.1166L74.0399 51.6731C74.8225 51.6938 75.5943 52.4319 75.7659 53.3218L83.8562 95.302C84.0279 96.1942 83.5458 96.9577 82.7772 97.0119Z" fill="url(#paint6_linear_134_524)"/>
<path d="M43.9381 67.2786L37.5152 67.3195C37.3225 67.3195 37.1345 67.1566 37.0952 66.9531L36.0326 61.44C35.9934 61.2361 36.1182 61.0714 36.3113 61.0732L42.7488 61.1101C42.9372 61.1101 43.121 61.2749 43.1595 61.4758L44.2072 66.9122C44.2464 67.1135 44.1262 67.2775 43.9381 67.2786ZM37.7218 66.5804L43.4575 66.552L42.5486 61.8371L36.8037 61.812L37.7218 66.5804Z" fill="#E4EAEF"/>
<path d="M52.0716 67.2269L45.8564 67.2667C45.6702 67.2667 45.4875 67.1064 45.4489 66.9058L44.4038 61.4827C44.3649 61.2821 44.4851 61.1203 44.6721 61.1214L50.9037 61.1583C51.0861 61.1583 51.2645 61.3205 51.3027 61.5181L52.3335 66.8675C52.3699 67.0647 52.2536 67.2258 52.0716 67.2269ZM46.0523 66.5397L51.6042 66.5121L50.7093 61.8728L45.1474 61.8484L46.0523 66.5397Z" fill="#E4EAEF"/>
<path d="M59.9338 67.1773L53.9127 67.2142C53.7321 67.2142 53.5559 67.0564 53.5166 66.8592L52.4882 61.5242C52.45 61.3269 52.566 61.1677 52.7473 61.1688L58.7827 61.2034C58.9589 61.2034 59.1324 61.3631 59.1698 61.5577L60.1846 66.8227C60.2221 67.0173 60.1097 67.1762 59.9338 67.1773ZM54.1011 66.5001L59.4785 66.4735L58.5971 61.9076L53.209 61.884L54.1011 66.5001Z" fill="#E4EAEF"/>
<path d="M67.5449 67.1276L61.7105 67.1645C61.5356 67.1645 61.3633 67.0093 61.3262 66.815L60.3138 61.5622C60.2782 61.3679 60.3881 61.2116 60.5636 61.2123L66.4116 61.2463C66.5829 61.2463 66.7513 61.4033 66.7881 61.595L67.7872 66.7781C67.824 66.9702 67.7158 67.1265 67.5449 67.1276ZM61.8914 66.4607L67.101 66.4349L66.2357 61.9397L61.0161 61.9169L61.8914 66.4607Z" fill="#E4EAEF"/>
<path d="M74.9232 67.0798L69.2667 67.1167C69.0972 67.1167 68.9299 66.9637 68.8931 66.7724L67.8965 61.6011C67.8608 61.4101 67.9679 61.2556 68.1374 61.2567L73.807 61.2895C73.9729 61.2895 74.1367 61.444 74.1731 61.6328L75.1569 66.7355C75.1933 66.925 75.0887 67.0787 74.9232 67.0798ZM69.4401 66.4225L74.4914 66.3974L73.6386 61.9712L68.578 61.9491L69.4401 66.4225Z" fill="#E4EAEF"/>
<path d="M28.3443 74.9022L21.4978 75.0448C21.3936 75.0432 21.293 75.0054 21.2122 74.9376C21.1313 74.8697 21.075 74.7757 21.0521 74.6706L19.9535 68.9699C19.9131 68.7591 20.0469 68.5869 20.2532 68.585L27.1157 68.5261C27.2179 68.53 27.316 68.5686 27.3948 68.6361C27.4735 68.7036 27.5284 68.7961 27.551 68.8991L28.634 74.5184C28.674 74.7263 28.5434 74.8981 28.3443 74.9022ZM21.7226 74.2754L27.8365 74.1571L26.8973 69.2833L20.7724 69.3445L21.7226 74.2754Z" fill="#E4EAEF"/>
<path d="M36.9893 74.7228L30.3695 74.8607C30.1707 74.8647 29.9769 74.7003 29.9373 74.492L28.8569 68.8882C28.8169 68.681 28.9461 68.5118 29.1452 68.51L35.7821 68.4532C35.9763 68.4514 36.165 68.6158 36.2046 68.82L37.2694 74.3464C37.3076 74.5499 37.1827 74.7187 36.9893 74.7228ZM30.5843 74.1038L36.4958 73.9895L35.5723 69.1968L29.649 69.2562L30.5843 74.1038Z" fill="#E4EAEF"/>
<path d="M45.3584 74.5488L38.9534 74.6823C38.7614 74.6863 38.5737 74.5241 38.5345 74.3206L37.4726 68.8075C37.4333 68.6037 37.5575 68.4389 37.7502 68.4355L44.1699 68.3806C44.3575 68.3806 44.541 68.5406 44.5799 68.7415L45.6275 74.1779C45.6653 74.3788 45.5451 74.5451 45.3584 74.5488ZM39.1589 73.9379L44.8785 73.8273L43.97 69.1124L38.2398 69.1707L39.1589 73.9379Z" fill="#E4EAEF"/>
<path d="M53.453 74.3785L47.2531 74.5076C47.0672 74.5116 46.8852 74.3523 46.8463 74.1518L45.8012 68.7283C45.7626 68.5278 45.8825 68.3641 46.0688 68.3626L52.2833 68.3091C52.4649 68.3091 52.643 68.4666 52.6811 68.6645L53.712 74.0139C53.7502 74.2115 53.6342 74.3748 53.453 74.3785ZM47.4497 73.7772L52.9862 73.6699L52.0942 69.0306L46.5476 69.0863L47.4497 73.7772Z" fill="url(#paint7_linear_134_524)"/>
<path d="M61.28 74.2178L55.2753 74.3428C55.0969 74.3465 54.9184 74.1898 54.8803 73.9922L53.8519 68.655C53.8141 68.4577 53.9297 68.2966 54.1099 68.2952L60.1288 68.2435C60.3047 68.2417 60.4778 68.3984 60.5153 68.593L61.5297 73.858C61.5672 74.0534 61.4555 74.2141 61.28 74.2178ZM55.4637 73.6224L60.8257 73.5188L59.9458 68.9525L54.5738 69.0063L55.4637 73.6224Z" fill="url(#paint8_linear_134_524)"/>
<path d="M68.8666 74.0579L63.0481 74.1792C62.874 74.1829 62.702 74.0284 62.6645 73.8341L61.6522 68.5814C61.6165 68.3874 61.7264 68.2285 61.902 68.2271L67.734 68.1773C67.9046 68.1773 68.0726 68.3299 68.1097 68.5216L69.1088 73.7047C69.1449 73.8964 69.0368 74.0546 68.8666 74.0579ZM63.2287 73.4703L68.4248 73.3696L67.5581 68.8745L62.3527 68.9268L63.2287 73.4703Z" fill="url(#paint9_linear_134_524)"/>
<path d="M76.2304 73.9037L70.5897 74.0209C70.4206 74.0246 70.2536 73.8735 70.2168 73.6814L69.2202 68.5101C69.1846 68.3187 69.2916 68.1624 69.4604 68.161L75.1143 68.1127C75.2799 68.1127 75.4433 68.2631 75.4797 68.4518L76.4631 73.5553C76.4995 73.7444 76.3953 73.9004 76.2304 73.9037ZM70.7621 73.3234L75.7994 73.2257L74.9466 68.7995L69.9 68.85L70.7621 73.3234Z" fill="url(#paint10_linear_134_524)"/>
<path d="M29.7918 82.4144L22.9646 82.6555C22.8609 82.6557 22.7603 82.6192 22.6795 82.5522C22.5986 82.4851 22.5423 82.3915 22.52 82.2869L21.4214 76.5858C21.3807 76.3749 21.5141 76.2002 21.7197 76.1954L28.5633 76.0383C28.6653 76.0402 28.7637 76.0776 28.8425 76.1445C28.9213 76.2115 28.976 76.304 28.9975 76.407L30.0805 82.0266C30.1205 82.2334 29.9913 82.4074 29.7918 82.4144ZM23.1884 81.8802L29.2851 81.6741L28.346 76.8L22.2378 76.9475L23.1884 81.8802Z" fill="#E4EAEF"/>
<path d="M38.4152 82.1095L31.8139 82.3425C31.6158 82.3495 31.4214 82.1873 31.3828 81.9801L30.3027 76.3763C30.2627 76.1688 30.3912 75.9974 30.5882 75.9926L37.2052 75.8407C37.3986 75.8362 37.5873 75.9981 37.6266 76.2023L38.6917 81.7287C38.7324 81.9329 38.6093 82.1043 38.4152 82.1095ZM32.028 81.5804L37.9235 81.381L36.9996 76.5883L31.0938 76.7328L32.028 81.5804Z" fill="#E4EAEF"/>
<path d="M46.748 81.8186L40.3608 82.0439C40.1692 82.0509 39.9822 81.8909 39.9426 81.687L38.8803 76.1758C38.8411 75.9719 38.9649 75.8035 39.1572 75.799L45.559 75.6516C45.7464 75.6475 45.929 75.8068 45.9679 76.0077L47.0156 81.4441C47.0545 81.6435 46.9346 81.812 46.748 81.8186ZM40.566 81.2948L46.2698 81.1016L45.361 76.3867L39.6471 76.5264L40.566 81.2948Z" fill="#E4EAEF"/>
<path d="M54.8293 81.5307L48.6466 81.7489C48.4614 81.7555 48.2797 81.5981 48.2408 81.3976L47.1957 75.9745C47.1572 75.7739 47.2767 75.608 47.4626 75.6036L53.6596 75.4613C53.8409 75.4568 54.0186 75.6139 54.0568 75.8115L55.0876 81.1609C55.1255 81.3589 55.0102 81.524 54.8293 81.5307ZM48.8425 81.0119L54.3636 80.825L53.4694 76.1857L47.9386 76.321L48.8425 81.0119Z" fill="#E4EAEF"/>
<path d="M62.63 81.2567L56.6421 81.4683C56.4636 81.4746 56.2852 81.3208 56.2495 81.1225L55.2212 75.7856C55.183 75.5884 55.2982 75.4251 55.4781 75.421L61.4803 75.2832C61.6558 75.2791 61.8282 75.4336 61.8657 75.6282L62.879 80.8939C62.9165 81.0878 62.8052 81.2508 62.63 81.2567ZM56.8294 80.7431L62.1768 80.5621L61.2969 75.9962L55.9395 76.127L56.8294 80.7431Z" fill="#E4EAEF"/>
<path d="M70.2128 80.9881L64.4108 81.1931C64.2366 81.199 64.0654 81.0456 64.0279 80.8524L63.0156 75.5997C62.9781 75.4057 63.0891 75.245 63.2636 75.2409L69.0799 75.1071C69.2501 75.1034 69.4178 75.2546 69.4545 75.447L70.4536 80.6305C70.49 80.8218 70.3826 80.9822 70.2128 80.9881ZM64.5899 80.4797L69.7714 80.3042L68.9054 75.8091L63.7142 75.9359L64.5899 80.4797Z" fill="#E4EAEF"/>
<path d="M77.5451 80.7286L71.9197 80.9291C71.7513 80.935 71.5847 80.7846 71.5479 80.5936L70.5513 75.4223C70.5156 75.231 70.6227 75.0729 70.7904 75.0692L76.4282 74.9394C76.5931 74.9357 76.7561 75.0869 76.7925 75.2742L77.7763 80.3761C77.812 80.5653 77.7096 80.7227 77.5451 80.7286ZM72.0914 80.225L77.1148 80.055L76.2619 75.6288L71.2307 75.7516L72.0914 80.225Z" fill="#E4EAEF"/>
<path d="M31.2421 89.9311L24.4338 90.2707C24.3307 90.2722 24.2302 90.2369 24.1494 90.1707C24.0686 90.1046 24.0124 90.0116 23.9903 89.9075L22.8916 84.2064C22.8509 83.9956 22.984 83.8186 23.1888 83.8109L30.0135 83.555C30.1149 83.5553 30.2132 83.5913 30.292 83.6573C30.3708 83.7232 30.4254 83.815 30.4467 83.9174L31.5297 89.537C31.5696 89.7446 31.4412 89.9212 31.2421 89.9311ZM24.6565 89.4887L30.7364 89.1938L29.7973 84.3233L23.7062 84.5607L24.6565 89.4887Z" fill="#E4EAEF"/>
<path d="M39.8442 89.5015L33.2607 89.83C33.0634 89.8395 32.8707 89.6795 32.8325 89.4724L31.7524 83.8686C31.7125 83.6614 31.8406 83.4874 32.0379 83.48L38.6367 83.2323C38.8297 83.2253 39.0178 83.3849 39.057 83.5892L40.1222 89.1155C40.1603 89.3186 40.0365 89.4919 39.8442 89.5015ZM33.4738 89.0628L39.3528 88.7782L38.429 83.9855L32.5392 84.2152L33.4738 89.0628Z" fill="#E4EAEF"/>
<path d="M48.1511 89.0861L41.7817 89.4039C41.5904 89.4131 41.4038 89.2564 41.3646 89.0518L40.3023 83.5391C40.2627 83.3352 40.3865 83.1641 40.5778 83.1571L46.9621 82.9175C47.1487 82.9109 47.3314 83.0679 47.37 83.2688L48.4187 88.7052C48.4569 88.9061 48.3373 89.0776 48.1511 89.0861ZM41.9855 88.6496L47.6733 88.3742L46.7648 83.6582L41.0666 83.8794L41.9855 88.6496Z" fill="#E4EAEF"/>
<path d="M56.2003 88.6836L50.035 88.9911C49.8498 89.0003 49.6686 88.8455 49.63 88.6449L48.5849 83.2214C48.5464 83.0209 48.6652 82.8528 48.8507 82.8458L55.0306 82.6142C55.2111 82.6072 55.3874 82.7617 55.4267 82.9601L56.4575 88.3094C56.4957 88.507 56.3805 88.6748 56.2003 88.6836ZM50.2295 88.2493L55.7353 87.9828L54.8433 83.3435L49.3274 83.5584L50.2295 88.2493Z" fill="#E4EAEF"/>
<path d="M64.0024 88.2969L58.0312 88.5947C57.8528 88.6036 57.6762 88.451 57.6387 88.2537L56.6104 82.9172C56.5722 82.72 56.6871 82.5545 56.8665 82.5486L62.8519 82.3241C63.0268 82.3174 63.1991 82.4715 63.2366 82.6647L64.2511 87.9297C64.2878 88.1236 64.1768 88.2884 64.0024 88.2969ZM58.2175 87.8651L63.5499 87.6071L62.67 83.0411L57.3279 83.2491L58.2175 87.8651Z" fill="#E4EAEF"/>
<path d="M71.557 87.9182L65.77 88.2065C65.5966 88.2154 65.4253 88.065 65.3882 87.8707L64.3784 82.6183C64.3409 82.424 64.4515 82.261 64.6253 82.2547L70.4252 82.0372C70.595 82.031 70.762 82.181 70.7991 82.3727L71.7982 87.5558C71.8336 87.7494 71.7265 87.9098 71.557 87.9182ZM65.9484 87.4887L71.1156 87.2388L70.2493 82.7436L65.0728 82.9453L65.9484 87.4887Z" fill="#E4EAEF"/>
<path d="M78.8657 87.5524L73.2564 87.8323C73.0883 87.8408 72.9221 87.6925 72.8853 87.5005L71.8887 82.3295C71.853 82.1386 71.9601 81.9782 72.1271 81.9719L77.7499 81.7611C77.9144 81.7548 78.0772 81.903 78.1132 82.0929L79.097 87.196C79.1334 87.3847 79.031 87.5443 78.8657 87.5524ZM73.4288 87.1255L78.4379 86.8833L77.5851 82.4567L72.5667 82.6525L73.4288 87.1255Z" fill="#E4EAEF"/>
<path d="M32.685 97.4441L25.8956 97.8825C25.793 97.8856 25.6926 97.8516 25.6117 97.7862C25.5309 97.7208 25.4748 97.6282 25.4532 97.5245L24.3545 91.8234C24.3138 91.6125 24.4466 91.4334 24.651 91.4227L31.4564 91.068C31.5574 91.0668 31.6556 91.1018 31.7345 91.167C31.8133 91.2322 31.8679 91.3236 31.8889 91.4256L32.9715 97.0449C33.0118 97.2524 32.8834 97.4312 32.685 97.4441ZM26.1172 97.0965L32.1797 96.7142L31.2405 91.84L25.1663 92.1655L26.1172 97.0965Z" fill="#E4EAEF"/>
<path d="M41.2702 96.8912L34.7046 97.3148C34.6047 97.317 34.5072 97.283 34.429 97.2187C34.3507 97.1544 34.2968 97.0639 34.2764 96.9628L33.1963 91.3572C33.1563 91.15 33.2841 90.9737 33.4817 90.9634L40.0623 90.6206C40.2547 90.6106 40.4424 90.768 40.4816 90.9723L41.5467 96.499C41.5853 96.7032 41.4618 96.8787 41.2702 96.8912ZM34.9169 96.5425L40.7796 96.1738L39.8561 91.3811L33.9827 91.6956L34.9169 96.5425Z" fill="#E4EAEF"/>
<path d="M49.5597 96.3551L43.2082 96.7651C43.0176 96.7773 42.831 96.6221 42.7917 96.4182L41.7295 90.9055C41.6902 90.7016 41.8133 90.5283 42.0042 90.5184L48.3707 90.1866C48.5566 90.177 48.739 90.3318 48.7775 90.5328L49.8255 95.9691C49.8644 96.1704 49.7467 96.3433 49.5597 96.3551ZM43.4108 96.006L49.0844 95.648L48.1755 90.9331L42.4934 91.2377L43.4108 96.006Z" fill="#E4EAEF"/>
<path d="M57.5708 95.8356L51.4227 96.2323C51.2382 96.2445 51.0573 96.0915 51.0187 95.8909L49.9736 90.4678C49.935 90.2673 50.0535 90.097 50.2383 90.0874L56.4011 89.7663C56.5795 89.757 56.7579 89.9097 56.7961 90.1073L57.827 95.4567C57.867 95.6543 57.7506 95.8227 57.5708 95.8356ZM51.6164 95.4858L57.1069 95.1396L56.2127 90.5003L50.7122 90.7952L51.6164 95.4858Z" fill="#E4EAEF"/>
<path d="M25.2027 60.0896L18.2264 60.0368L17.9292 58.4929L24.9091 58.5655L25.2027 60.0896Z" fill="url(#paint11_linear_134_524)"/>
<path d="M34.0063 60.1531L27.2633 60.1026L26.9707 58.5848L33.7172 58.6552L34.0063 60.1531Z" fill="url(#paint12_linear_134_524)"/>
<path d="M42.5251 60.2176L36.0044 60.1686L35.7168 58.6762L42.241 58.744L42.5251 60.2176Z" fill="url(#paint13_linear_134_524)"/>
<path d="M50.7594 60.2813L44.45 60.2341L44.167 58.7661L50.4803 58.8317L50.7594 60.2813Z" fill="url(#paint14_linear_134_524)"/>
<path d="M58.735 60.3414L52.6265 60.2957L52.3481 58.8513L58.4599 58.915L58.735 60.3414Z" fill="url(#paint15_linear_134_524)"/>
<path d="M66.4546 60.3971L60.5377 60.3525L60.2637 58.9313L66.1838 58.9932L66.4546 60.3971Z" fill="url(#paint16_linear_134_524)"/>
<path d="M73.9454 60.4554L68.2112 60.4122L67.9414 59.0131L73.6788 59.0728L73.9454 60.4554Z" fill="url(#paint17_linear_134_524)"/>
<path d="M73.323 57.1955L17.5345 56.3944L16.9722 53.476L72.8195 54.5828L73.323 57.1955Z" fill="#E4EAEF"/>
<g style="mix-blend-mode:multiply" opacity="0.3">
<path d="M58.4378 77.1631C45.945 70.1499 34.1062 75.6018 25.582 66.6059C21.2105 61.9928 19.8089 55.7671 19.5563 50.2592L14.0611 50.1165C13.0841 50.0911 12.4444 50.8723 12.6338 51.8618L21.8135 99.4955C22.0041 100.485 22.9386 101.232 23.8978 101.164L75.5219 97.5239C69.8527 85.6181 63.589 80.0538 58.4378 77.1631Z" fill="#E4EAEF"/>
</g>
<path d="M14.0506 19.9207C14.1549 19.9209 14.2591 19.9286 14.3624 19.9436L21.9008 19.858V40.109L14.6215 40.0061C14.4349 40.0551 14.2431 40.0799 14.0506 40.0799C11.4668 40.0799 9.37256 35.5666 9.37256 29.9997C9.37256 24.4328 11.4668 19.9207 14.0506 19.9207Z" fill="url(#paint18_linear_134_524)"/>
<path d="M21.8958 19.8569C19.0412 26.6002 19.0412 33.3195 21.8958 40.1078L77.9705 58.7362L78.5497 1.89801L21.8958 19.8569Z" fill="url(#paint19_linear_134_524)"/>
<path style="mix-blend-mode:multiply" opacity="0.3" d="M62.8315 42.0281C57.5001 39.9414 55.8434 31.9498 49.6535 31.6806C44.7968 31.4698 43.3334 36.3421 38.5744 35.8167C33.703 35.2785 32.8852 29.8521 27.4297 27.9394C24.9494 27.0697 22.3542 27.2305 19.8357 27.9659C19.4974 31.993 20.1837 36.0405 21.8946 40.1084L77.9691 58.7368L74.6506 39.4385C69.1227 42.7691 65.4163 43.0401 62.8315 42.0281Z" fill="url(#paint20_linear_134_524)"/>
<path d="M80.686 59.4826C88.2192 59.4826 94.3261 46.3236 94.3261 30.0913C94.3261 13.8589 88.2192 0.699951 80.686 0.699951C73.1528 0.699951 67.0459 13.8589 67.0459 30.0913C67.0459 46.3236 73.1528 59.4826 80.686 59.4826Z" fill="url(#paint21_linear_134_524)"/>
<path d="M80.6824 58.4842C82.2817 58.4842 83.8532 57.7911 85.3533 56.4241C86.8798 55.0328 88.2607 53.0198 89.4568 50.4421C91.9717 45.0227 93.3569 37.7968 93.3569 30.0916C93.3569 22.3865 91.9717 15.1606 89.4568 9.74116C88.2603 7.16307 86.8794 5.15051 85.3533 3.75916C83.8546 2.39177 82.2817 1.69867 80.6824 1.69867C79.0831 1.69867 77.5116 2.39177 76.0115 3.75916C74.4847 5.15051 73.1041 7.16307 71.908 9.74116C70.8564 12.0074 70.0022 14.5895 69.3645 17.3903C68.4768 21.2882 71.0416 25.3572 71.0416 29.8402C71.0416 34.6075 68.5374 39.4444 69.5372 43.5307C70.1535 46.0491 70.9481 48.3783 71.9073 50.4447C73.1037 53.0224 74.4843 55.0354 76.0108 56.4267C77.5116 57.7911 79.0831 58.4842 80.6824 58.4842Z" fill="url(#paint22_linear_134_524)"/>
<mask id="mask0_134_524" style="mask-type:luminance" maskUnits="userSpaceOnUse" x="68" y="1" width="26" height="58">
<path d="M80.6912 58.4842C82.2905 58.4842 83.862 57.7911 85.3621 56.4241C86.8886 55.0328 88.2695 53.0198 89.4656 50.4421C91.9805 45.0227 93.3657 37.7968 93.3657 30.0916C93.3657 22.3865 91.9805 15.1606 89.4656 9.74116C88.2692 7.16307 86.8883 5.15051 85.3621 3.75916C83.8634 2.39177 82.2905 1.69867 80.6912 1.69867C79.0919 1.69867 77.5205 2.39177 76.0204 3.75916C74.4935 5.15051 73.1129 7.16307 71.9169 9.74116C69.4012 15.1587 68.0171 22.3846 68.0171 30.0898C68.0171 37.795 69.4019 45.0209 71.9172 50.4403C73.1137 53.018 74.4942 55.0309 76.0207 56.4223C77.5205 57.7911 79.0919 58.4842 80.6912 58.4842Z" fill="white"/>
</mask>
<g mask="url(#mask0_134_524)">
<path d="M81.8042 30.4772C81.8042 37.9243 77.032 43.8362 71.2278 43.6854C65.5136 43.538 60.9458 37.5497 60.9458 30.3106C60.9458 23.0714 65.5132 17.1572 71.2278 17.1001C77.032 17.0422 81.8042 23.0308 81.8042 30.4772Z" fill="url(#paint23_linear_134_524)"/>
<path style="mix-blend-mode:multiply" opacity="0.3" d="M80.8951 30.3575C80.8951 35.8875 78.5696 40.2772 75.7418 40.164C72.9585 40.0534 70.7319 35.608 70.7319 30.2325C70.7319 24.8569 72.9578 20.465 75.7418 20.4226C78.5678 20.3806 80.8951 24.8278 80.8951 30.3575Z" fill="url(#paint24_linear_134_524)"/>
</g>
<path d="M23.4379 60.6077C23.4379 60.6077 16.8327 48.7908 7.89953 68.8866C0.943911 84.535 5.43957 101.944 21.5303 106.72C37.621 111.497 62.7573 101.85 54.8683 95.0517C38.1338 80.629 25.4326 67.844 23.4379 60.6077Z" fill="url(#paint25_linear_134_524)"/>
<g style="mix-blend-mode:multiply" opacity="0.35">
<path d="M15.1485 71.2251C14.6782 72.6563 14.5718 76.7338 14.7702 81.4229C14.9486 85.6058 14.5797 87.7927 21.0208 90.835C23.2285 91.8779 24.7553 95.1871 28.1359 97.1558C29.6685 98.0483 35.4419 101.278 42.8982 99.9724C47.8314 99.1094 51.5049 96.6091 53.9784 94.2795C37.6857 80.1735 25.3965 67.7143 23.4368 60.6056C23.4368 60.6056 21.0233 56.2922 17.142 57.3127C18.0837 58.3973 18.4034 61.3164 15.1485 71.2251Z" fill="url(#paint26_linear_134_524)"/>
</g>
<g style="mix-blend-mode:multiply" opacity="0.13">
<path d="M47.2878 101.967C39.6774 106.309 26.9669 108.959 17.4974 101.692C8.72951 94.964 7.94841 83.6968 7.65617 80.2571C7.1452 74.2478 8.28169 69.0127 9.92024 64.7925C9.26189 65.9819 8.58785 67.3389 7.89953 68.8866C0.943913 84.5351 5.43957 101.944 21.5303 106.721C37.3698 111.423 61.9698 102.149 55.2147 95.3729C53.2953 97.6107 50.7048 100.018 47.2878 101.967Z" fill="url(#paint27_linear_134_524)"/>
</g>
<path style="mix-blend-mode:multiply" opacity="0.3" d="M35.2988 103.255C35.0733 103.255 34.8471 103.252 34.618 103.247C28.7403 103.111 20.4876 101.094 14.555 92.2555C9.54371 84.79 10.2145 76.366 11.6597 70.6114C13.2233 64.385 16.0076 59.86 16.0355 59.815C16.0429 59.8031 16.0525 59.7928 16.0638 59.7847C16.0751 59.7766 16.0878 59.7709 16.1012 59.7678C16.1146 59.7648 16.1285 59.7646 16.142 59.7671C16.1555 59.7696 16.1684 59.7749 16.18 59.7825C16.1915 59.7902 16.2015 59.8002 16.2093 59.8118C16.2172 59.8235 16.2227 59.8366 16.2256 59.8505C16.2285 59.8643 16.2288 59.8787 16.2263 59.8926C16.2239 59.9066 16.2188 59.9199 16.2114 59.9319C16.1839 59.9765 13.4153 64.4775 11.8606 70.6719C10.4279 76.3796 9.76209 84.7362 14.727 92.1324C20.61 100.896 28.7935 102.897 34.6226 103.031C40.9474 103.176 45.9341 101.224 45.9837 101.204C46.0095 101.194 46.0383 101.195 46.0637 101.206C46.0891 101.218 46.1089 101.239 46.1189 101.266C46.1289 101.293 46.1282 101.323 46.1169 101.349C46.1057 101.375 46.0848 101.396 46.059 101.406C46.0108 101.425 41.3349 103.255 35.2988 103.255Z" fill="url(#paint28_linear_134_524)"/>
<path d="M66.8614 102.136C66.4418 101.669 65.6903 99.661 67.0612 99.2484C68.4393 98.8333 69.2054 98.3079 71.1037 96.7359C73.002 95.1639 73.4891 96.5147 70.8083 99.067C68.1274 101.619 67.4577 102.799 66.8614 102.136Z" fill="url(#paint29_linear_134_524)"/>
<path d="M65.0547 99.2029L66.1837 100.222C66.2985 100.325 66.4427 100.388 66.5947 100.4C66.7467 100.412 66.8984 100.373 67.0272 100.289C67.088 100.249 67.1389 100.195 67.1759 100.131C67.2128 100.067 67.2348 99.9956 67.2399 99.9215C67.2451 99.8473 67.2334 99.773 67.2057 99.7044C67.1779 99.6358 67.135 99.5749 67.0804 99.5266L65.4301 98.0674L65.0547 99.2029Z" fill="url(#paint30_linear_134_524)"/>
<path d="M31.2323 89.3972C29.2376 91.2036 33.4018 97.1241 40.0538 95.2048C48.1153 92.8792 58.3673 93.9244 65.2783 99.7394C65.6794 99.3707 66.6725 98.7927 66.2182 98.3182C59.9737 91.7957 54.1931 88.0512 49.4031 87.0465C42.1619 85.5258 36.9126 84.2561 31.2323 89.3972Z" fill="url(#paint31_linear_134_524)"/>
<g style="mix-blend-mode:multiply" opacity="0.24">
<path d="M54.617 91.8767C55.7863 92.5794 56.0357 91.1515 56.6387 90.2122C54.0492 88.5694 51.6175 87.5095 49.4005 87.0446C42.1594 85.5253 36.9116 84.2556 31.2299 89.3967C29.2352 91.2031 33.3994 97.1236 40.0513 95.2043C42.4574 94.5101 45.0597 94.1241 47.7088 94.0677C49.8408 92.683 51.5839 89.5065 54.617 91.8767Z" fill="#552D63"/>
</g>
<path d="M30.0743 95.5656L29.6647 95.7275C29.6647 95.7275 27.0159 93.1435 26.5439 92.4832C25.9679 91.6799 32.454 89.6312 34.5603 86.9532C36.7726 84.137 35.0242 90.2967 35.0242 90.2967L30.0743 95.5656Z" fill="url(#paint32_linear_134_524)"/>
<path d="M27.6611 70.2157C27.6611 70.2157 30.0126 70.5475 32.5911 75.2723C34.5297 78.8241 38.7385 81.7668 38.7385 81.7668L39.1709 84.5613L35.6776 85.1954L34.4287 84.3453L31.0199 76.8517L27.6611 70.2157Z" fill="url(#paint33_linear_134_524)"/>
<path d="M23.1111 69.9134C23.1111 69.9134 17.3148 70.6507 17.1903 77.5448C17.0754 83.904 19.2955 86.3678 24.7453 91.6703C25.2931 92.2034 26.1816 92.2038 26.2476 92.2804C26.6016 92.6929 26.96 93.123 27.3231 93.5708C32.1994 88.7353 37.6985 87.0981 37.6985 87.0981C37.6985 87.0981 32.613 76.2279 30.3782 72.6246C28.0742 68.9114 24.5994 69.544 23.1111 69.9134Z" fill="url(#paint34_linear_134_524)"/>
<g style="mix-blend-mode:multiply" opacity="0.2">
<path d="M32.7357 85.968C30.2889 87.3207 26.8213 87.1677 25.546 85.4935C24.5854 84.2331 24.4299 83.7634 23.2623 81.7836C22.3217 80.191 21.8639 79.9359 19.8086 78.595C19.0332 78.0889 18.1529 77.3567 17.2898 76.2588C17.2324 76.685 17.2 77.1144 17.1927 77.5447C17.0778 83.9038 19.298 86.3677 24.7478 91.6702C25.2955 92.2033 26.184 92.2037 26.25 92.2803C26.604 92.6928 26.9625 93.1229 27.3255 93.5707C32.2019 88.7352 37.7009 87.098 37.7009 87.098C37.7009 87.098 36.857 85.3881 35.7384 82.984C34.927 84.389 34.3054 85.1002 32.7357 85.968Z" fill="url(#paint35_linear_134_524)"/>
</g>
<path d="M28.7197 86.1678C28.7197 86.1678 29.818 86.2205 30.5984 85.8957C31.3788 85.5709 31.3142 85.4964 32.2124 85.3796C33.0852 85.2653 34.8047 84.73 33.8313 83.8153C32.7476 82.7971 30.8907 83.0824 30.3568 83.7585C29.8423 84.41 28.9509 84.8236 28.9509 84.8236L28.7197 86.1678Z" fill="url(#paint36_linear_134_524)"/>
<path d="M18.919 73.3488C18.919 73.3488 15.6997 73.7363 17.5784 84.4457C18.5525 90.0008 23.3686 89.2188 29.1838 86.9235C29.5763 86.0726 29.071 84.2691 29.071 84.2691C29.071 84.2691 21.846 87.3471 21.659 82.8567C21.4492 77.8237 20.7973 72.8172 18.919 73.3488Z" fill="url(#paint37_linear_134_524)"/>
<path d="M24.4463 72.1944C23.0682 72.1944 21.6684 71.1404 21.6013 71.0884C21.5913 71.0795 21.5848 71.067 21.5833 71.0534C21.5818 71.0398 21.5854 71.0261 21.5932 71.0151C21.6011 71.0041 21.6127 70.9966 21.6257 70.994C21.6387 70.9915 21.6522 70.9941 21.6634 71.0014C21.682 71.0154 23.5221 72.4023 25.0115 72.0171C25.424 71.9105 25.7066 71.7019 25.8511 71.397C26.1262 70.8167 25.8154 70.0727 25.8112 70.0654C25.8078 70.0588 25.8057 70.0516 25.8052 70.0442C25.8046 70.0367 25.8055 70.0293 25.8078 70.0222C25.8102 70.0152 25.8139 70.0087 25.8188 70.0032C25.8237 69.9977 25.8296 69.9933 25.8362 69.9903C25.8427 69.9873 25.8499 69.9857 25.8571 69.9857C25.8643 69.9856 25.8714 69.9871 25.878 69.99C25.8847 69.9929 25.8907 69.9972 25.8956 70.0027C25.9005 70.0081 25.9044 70.0145 25.9068 70.0215C25.9207 70.0539 26.2411 70.8197 25.945 71.4445C25.7862 71.7793 25.4811 72.0071 25.0369 72.1218C24.8436 72.1709 24.6453 72.1953 24.4463 72.1944Z" fill="#9F73F8"/>
<path d="M26.509 92.0604C26.4984 92.0605 26.4879 92.0573 26.4791 92.0511C26.4703 92.0449 26.4635 92.0362 26.4597 92.0259C26.4558 92.0157 26.455 92.0045 26.4575 91.9938C26.4599 91.9831 26.4654 91.9734 26.4733 91.966C26.5251 91.9177 31.714 87.1188 36.3985 85.9353C36.4052 85.9335 36.4121 85.9331 36.419 85.9341C36.4258 85.9351 36.4324 85.9376 36.4383 85.9412C36.4442 85.9449 36.4493 85.9498 36.4534 85.9555C36.4575 85.9613 36.4604 85.9679 36.462 85.9748C36.4652 85.9888 36.463 86.0035 36.4558 86.0158C36.4486 86.0281 36.4369 86.0369 36.4234 86.0404C31.7647 87.2172 26.595 91.9981 26.5433 92.0464C26.5338 92.0552 26.5217 92.0602 26.509 92.0604Z" fill="#AE87F9"/>
<path d="M22.8987 66.6792C22.8987 66.6792 23.1171 69.2746 22.9198 69.7661C22.7224 70.2575 23.3458 70.9277 24.5772 71.1858C25.8086 71.4439 24.8338 68.5978 24.8338 68.5978L22.8987 66.6792Z" fill="url(#paint38_linear_134_524)"/>
<path d="M26.4405 66.8721C27.7204 66.151 27.6933 62.7652 26.9697 62.5075C26.554 62.36 26.3491 63.403 24.9779 64.0068C23.9099 64.4773 23.1502 64.2336 22.7605 64.8828C22.5775 65.1877 22.5076 65.6378 22.5672 66.0164C22.5978 66.2115 22.6828 66.464 22.8858 66.9551C23.066 67.3908 23.0514 67.3739 23.1077 67.5014C23.2437 67.8078 23.5184 68.3332 24.0819 68.9945C24.1741 68.7659 24.2856 68.546 24.4152 68.3376C24.473 68.2447 24.7042 67.8815 25.0125 67.6002C25.5734 67.0871 26.0733 67.0789 26.4405 66.8721Z" fill="url(#paint39_linear_134_524)"/>
<path d="M23.3365 68.3025C23.3365 68.3025 23.8157 69.5144 25.1256 69.6427C26.2985 69.7577 26.8872 67.0966 26.2346 66.4028C26.0169 66.1713 25.5341 66.0098 25.1131 66.0596C24.8633 66.0887 24.768 66.1775 24.3609 66.2174C23.9855 66.2542 23.8899 66.196 23.7664 66.2723C23.6119 66.3681 23.4671 66.641 23.572 67.4657C23.3864 67.1973 23.1345 67.0642 22.9318 67.1247C22.8618 67.1501 22.8 67.1952 22.7534 67.2548C22.5432 67.535 22.7534 67.9722 23.3365 68.3025Z" fill="url(#paint40_linear_134_524)"/>
<path d="M29.5034 87.6095C29.4771 87.6131 29.4524 87.6243 29.4321 87.6418C29.4118 87.6594 29.3968 87.6826 29.3888 87.7087C29.3867 87.7165 29.4074 87.9878 29.4067 87.9959C29.4042 88.0265 29.4117 88.0572 29.4282 88.0828C29.4446 88.1084 29.469 88.1276 29.4973 88.1371L34.4262 89.7913L43.6391 86.0645L39.2626 86.4099L29.5034 87.6095Z" fill="#26264F"/>
<path d="M29.5021 87.5715C29.4726 87.5758 29.4453 87.5903 29.4248 87.6127C29.4042 87.635 29.3917 87.664 29.3891 87.6947C29.3866 87.7254 29.3943 87.7561 29.4108 87.7817C29.4274 87.8074 29.4519 87.8265 29.4803 87.8358L34.4092 89.49L43.6207 85.7632L39.2438 86.109L29.5021 87.5715Z" fill="#444B8C"/>
<path d="M34.1802 89.4155L34.9145 79.488C34.9202 79.4107 34.951 79.3377 35.0019 79.2807C35.0528 79.2238 35.1209 79.1863 35.195 79.1743L46.2256 77.3903C46.2743 77.3824 46.3241 77.3858 46.3714 77.4003C46.4187 77.4148 46.4623 77.4399 46.4991 77.474C46.5358 77.508 46.5648 77.55 46.5839 77.597C46.603 77.644 46.6117 77.6948 46.6095 77.7457L46.1956 86.9992C46.1921 87.0768 46.1633 87.1508 46.114 87.2093C46.0646 87.2678 45.9975 87.3073 45.9237 87.3215L34.4642 89.5136L34.1802 89.4155Z" fill="url(#paint41_linear_134_524)"/>
<path d="M34.4297 89.7909L35.1858 79.6448C35.1916 79.5676 35.2225 79.4946 35.2733 79.4377C35.3242 79.3807 35.3922 79.3432 35.4663 79.3311L46.4972 77.5475C46.546 77.5396 46.5959 77.543 46.6432 77.5575C46.6905 77.572 46.7341 77.5972 46.7709 77.6312C46.8076 77.6653 46.8366 77.7074 46.8557 77.7544C46.8747 77.8014 46.8835 77.8523 46.8812 77.9032L46.4673 87.1568C46.4638 87.234 46.4352 87.3079 46.3862 87.3663C46.3371 87.4247 46.2703 87.4643 46.1968 87.4786L34.4297 89.7909Z" fill="#26264F"/>
<path d="M34.4297 89.7917L46.1978 87.4801C46.2714 87.4657 46.3381 87.4262 46.3872 87.3677C46.4363 87.3093 46.4649 87.2355 46.4683 87.1583L46.5932 84.3671C43.0874 86.4242 38.6941 86.6856 34.5999 87.5107L34.4297 89.7917Z" fill="#1F1F44"/>
<path d="M54.356 87.7118C54.1951 87.1344 53.8397 86.4952 55.1089 86.0314C56.0302 85.6937 57.6306 85.5849 59.085 85.5079C61.1236 85.3998 61.5925 86.6599 58.6133 87.4618C56.6611 87.9864 54.5847 88.5324 54.356 87.7118Z" fill="url(#paint42_linear_134_524)"/>
<path d="M55.9519 86.8305C55.9712 87.1534 55.7735 87.4071 55.5123 87.4454C54.9093 87.5343 55.0224 87.2135 55.0031 86.8906C54.9838 86.5676 54.7401 86.3435 55.4427 86.2756C55.7053 86.2487 55.933 86.5057 55.9519 86.8305Z" fill="url(#paint43_linear_134_524)"/>
<path d="M49.7603 84.9695L50.3558 84.8726C50.3558 84.8726 51.5155 84.9832 54.7116 85.8949C55.396 86.0125 56.3287 88.0755 54.3241 88.1567C52.3194 88.2378 49.8787 89.7788 49.8787 89.7788L49.7603 84.9695Z" fill="url(#paint44_linear_134_524)"/>
<path d="M28.948 94.571C28.948 94.571 29.2398 97.2487 35.2656 97.0042C41.2913 96.7598 52.0565 90.2974 51.9887 86.9061C51.9209 83.5147 47.9151 84.8695 43.7674 86.8297C40.2669 88.4843 34.8592 89.4425 33.7509 89.6202C32.3321 89.8469 28.605 93.2837 28.948 94.571Z" fill="url(#paint45_linear_134_524)"/>
<g style="mix-blend-mode:multiply" opacity="0.2">
<path d="M36.8233 91.2162C39.6126 90.9213 40.2388 88.8545 43.71 88.2565C45.9581 87.8691 46.7534 88.5555 47.8999 87.7618C48.8052 87.135 49.2673 86.0438 49.4896 84.8578C47.9513 84.9924 45.8753 85.8307 43.7586 86.8309C40.3587 88.4379 35.159 89.388 33.8484 89.6044C33.8095 89.6106 32.9303 89.2858 32.9303 89.2858C32.9303 89.2858 32.2759 89.6722 31.8066 89.9771C33.6347 90.988 35.8045 91.3216 36.8233 91.2162Z" fill="url(#paint46_linear_134_524)"/>
</g>
<defs>
<linearGradient id="paint0_linear_134_524" x1="38.4627" y1="36.2299" x2="21.3491" y2="55.7644" gradientUnits="userSpaceOnUse">
<stop stop-color="#311944"/>
<stop offset="1" stop-color="#893976"/>
</linearGradient>
<linearGradient id="paint1_linear_134_524" x1="36.4321" y1="34.4512" x2="19.3189" y2="53.9857" gradientUnits="userSpaceOnUse">
<stop stop-color="#311944"/>
<stop offset="1" stop-color="#893976"/>
</linearGradient>
<linearGradient id="paint2_linear_134_524" x1="-8.10016" y1="88.6378" x2="5.22074" y2="82.0411" gradientUnits="userSpaceOnUse">
<stop stop-color="#FF9085"/>
<stop offset="1" stop-color="#FB6FBB"/>
</linearGradient>
<linearGradient id="paint3_linear_134_524" x1="9.78822" y1="75.139" x2="85.2908" y2="75.139" gradientUnits="userSpaceOnUse">
<stop stop-color="#EBEFF2"/>
<stop offset="1" stop-color="white"/>
</linearGradient>
<linearGradient id="paint4_linear_134_524" x1="32.3524" y1="54.4212" x2="87.6017" y2="141.183" gradientUnits="userSpaceOnUse">
<stop stop-color="#FF9085"/>
<stop offset="1" stop-color="#FB6FBB"/>
</linearGradient>
<linearGradient id="paint5_linear_134_524" x1="20.7311" y1="62.1447" x2="76.8206" y2="150.225" gradientUnits="userSpaceOnUse">
<stop stop-color="#FF9085"/>
<stop offset="1" stop-color="#FB6FBB"/>
</linearGradient>
<linearGradient id="paint6_linear_134_524" x1="50.6582" y1="106.181" x2="59.5282" y2="42.4796" gradientUnits="userSpaceOnUse">
<stop stop-color="#EBEFF2"/>
<stop offset="1" stop-color="white"/>
</linearGradient>
<linearGradient id="paint7_linear_134_524" x1="46.1086" y1="71.4085" x2="52.8171" y2="69.9801" gradientUnits="userSpaceOnUse">
<stop stop-color="#FF9085"/>
<stop offset="1" stop-color="#FB6FBB"/>
</linearGradient>
<linearGradient id="paint8_linear_134_524" x1="54.1522" y1="71.2935" x2="60.6515" y2="69.9096" gradientUnits="userSpaceOnUse">
<stop stop-color="#FF9085"/>
<stop offset="1" stop-color="#FB6FBB"/>
</linearGradient>
<linearGradient id="paint9_linear_134_524" x1="61.9458" y1="71.1783" x2="68.2451" y2="69.8369" gradientUnits="userSpaceOnUse">
<stop stop-color="#FF9085"/>
<stop offset="1" stop-color="#FB6FBB"/>
</linearGradient>
<linearGradient id="paint10_linear_134_524" x1="69.5071" y1="71.0668" x2="75.6156" y2="69.7661" gradientUnits="userSpaceOnUse">
<stop stop-color="#FF9085"/>
<stop offset="1" stop-color="#FB6FBB"/>
</linearGradient>
<linearGradient id="paint11_linear_134_524" x1="19.7665" y1="53.3802" x2="22.4204" y2="88.4881" gradientUnits="userSpaceOnUse">
<stop stop-color="#E38DDD"/>
<stop offset="1" stop-color="#9571F6"/>
</linearGradient>
<linearGradient id="paint12_linear_134_524" x1="28.5387" y1="52.9257" x2="31.1352" y2="87.2806" gradientUnits="userSpaceOnUse">
<stop stop-color="#E38DDD"/>
<stop offset="1" stop-color="#9571F6"/>
</linearGradient>
<linearGradient id="paint13_linear_134_524" x1="37.0269" y1="52.494" x2="39.5691" y2="86.1263" gradientUnits="userSpaceOnUse">
<stop stop-color="#E38DDD"/>
<stop offset="1" stop-color="#9571F6"/>
</linearGradient>
<linearGradient id="paint14_linear_134_524" x1="45.2309" y1="52.0821" x2="47.7209" y2="85.0211" gradientUnits="userSpaceOnUse">
<stop stop-color="#E38DDD"/>
<stop offset="1" stop-color="#9571F6"/>
</linearGradient>
<linearGradient id="paint15_linear_134_524" x1="53.1769" y1="51.6866" x2="55.6162" y2="83.958" gradientUnits="userSpaceOnUse">
<stop stop-color="#E38DDD"/>
<stop offset="1" stop-color="#9571F6"/>
</linearGradient>
<linearGradient id="paint16_linear_134_524" x1="60.8672" y1="51.305" x2="63.2581" y2="82.9347" gradientUnits="userSpaceOnUse">
<stop stop-color="#E38DDD"/>
<stop offset="1" stop-color="#9571F6"/>
</linearGradient>
<linearGradient id="paint17_linear_134_524" x1="68.3293" y1="50.943" x2="70.6735" y2="81.9553" gradientUnits="userSpaceOnUse">
<stop stop-color="#E38DDD"/>
<stop offset="1" stop-color="#9571F6"/>
</linearGradient>
<linearGradient id="paint18_linear_134_524" x1="10.7938" y1="21.9698" x2="24.6074" y2="37.7377" gradientUnits="userSpaceOnUse">
<stop stop-color="#E38DDD"/>
<stop offset="1" stop-color="#9571F6"/>
</linearGradient>
<linearGradient id="paint19_linear_134_524" x1="46.0713" y1="-0.627362" x2="62.2756" y2="86.1243" gradientUnits="userSpaceOnUse">
<stop stop-color="#AA80F9"/>
<stop offset="1" stop-color="#6165D7"/>
</linearGradient>
<linearGradient id="paint20_linear_134_524" x1="40.8645" y1="-0.467957" x2="57.2712" y2="87.364" gradientUnits="userSpaceOnUse">
<stop stop-color="#AA80F9"/>
<stop offset="1" stop-color="#6165D7"/>
</linearGradient>
<linearGradient id="paint21_linear_134_524" x1="65.534" y1="11.6291" x2="96.9943" y2="47.54" gradientUnits="userSpaceOnUse">
<stop stop-color="#E38DDD"/>
<stop offset="1" stop-color="#9571F6"/>
</linearGradient>
<linearGradient id="paint22_linear_134_524" x1="63.408" y1="29.6356" x2="92.6223" y2="30.3561" gradientUnits="userSpaceOnUse">
<stop stop-color="#311944"/>
<stop offset="1" stop-color="#893976"/>
</linearGradient>
<linearGradient id="paint23_linear_134_524" x1="66.4285" y1="2.11964" x2="77.0086" y2="58.7614" gradientUnits="userSpaceOnUse">
<stop stop-color="#FFC444"/>
<stop offset="1" stop-color="#F36F56"/>
</linearGradient>
<linearGradient id="paint24_linear_134_524" x1="72.1624" y1="9.43297" x2="79.9688" y2="51.2263" gradientUnits="userSpaceOnUse">
<stop stop-color="#FFC444"/>
<stop offset="1" stop-color="#F36F56"/>
</linearGradient>
<linearGradient id="paint25_linear_134_524" x1="17.3558" y1="64.116" x2="58.7037" y2="149.607" gradientUnits="userSpaceOnUse">
<stop stop-color="#FFC444"/>
<stop offset="1" stop-color="#F36F56"/>
</linearGradient>
<linearGradient id="paint26_linear_134_524" x1="21.8554" y1="61.9373" x2="63.2033" y2="147.428" gradientUnits="userSpaceOnUse">
<stop stop-color="#FFC444"/>
<stop offset="1" stop-color="#F36F56"/>
</linearGradient>
<linearGradient id="paint27_linear_134_524" x1="17.3558" y1="64.1164" x2="58.7039" y2="149.608" gradientUnits="userSpaceOnUse">
<stop stop-color="#FFC444"/>
<stop offset="1" stop-color="#F36F56"/>
</linearGradient>
<linearGradient id="paint28_linear_134_524" x1="10.6106" y1="81.51" x2="46.126" y2="81.51" gradientUnits="userSpaceOnUse">
<stop stop-color="#FFC444"/>
<stop offset="1" stop-color="#F36F56"/>
</linearGradient>
<linearGradient id="paint29_linear_134_524" x1="65.9976" y1="102.083" x2="71.5701" y2="95.9545" gradientUnits="userSpaceOnUse">
<stop stop-color="#40447E"/>
<stop offset="1" stop-color="#3C3B6B"/>
</linearGradient>
<linearGradient id="paint30_linear_134_524" x1="52.3377" y1="81.3914" x2="113.262" y2="156.005" gradientUnits="userSpaceOnUse">
<stop stop-color="#FFC444"/>
<stop offset="1" stop-color="#F36F56"/>
</linearGradient>
<linearGradient id="paint31_linear_134_524" x1="29.167" y1="84.7742" x2="71.1133" y2="103.255" gradientUnits="userSpaceOnUse">
<stop stop-color="#311944"/>
<stop offset="1" stop-color="#6B3976"/>
</linearGradient>
<linearGradient id="paint32_linear_134_524" x1="14.5544" y1="95.6141" x2="50.7137" y2="86.8721" gradientUnits="userSpaceOnUse">
<stop stop-color="#311944"/>
<stop offset="1" stop-color="#893976"/>
</linearGradient>
<linearGradient id="paint33_linear_134_524" x1="44.9205" y1="100.425" x2="33.6072" y2="78.3618" gradientUnits="userSpaceOnUse">
<stop stop-color="#AA80F9"/>
<stop offset="1" stop-color="#6165D7"/>
</linearGradient>
<linearGradient id="paint34_linear_134_524" x1="29.5797" y1="90.7361" x2="24.345" y2="74.9946" gradientUnits="userSpaceOnUse">
<stop stop-color="#AA80F9"/>
<stop offset="1" stop-color="#6165D7"/>
</linearGradient>
<linearGradient id="paint35_linear_134_524" x1="29.5808" y1="90.7374" x2="24.3461" y2="74.9963" gradientUnits="userSpaceOnUse">
<stop stop-color="#AA80F9"/>
<stop offset="1" stop-color="#6165D7"/>
</linearGradient>
<linearGradient id="paint36_linear_134_524" x1="28.1209" y1="85.6013" x2="47.0583" y2="79.5202" gradientUnits="userSpaceOnUse">
<stop stop-color="#AB316D"/>
<stop offset="1" stop-color="#792D3D"/>
</linearGradient>
<linearGradient id="paint37_linear_134_524" x1="25.9775" y1="93.0113" x2="20.4694" y2="76.4488" gradientUnits="userSpaceOnUse">
<stop offset="0.28" stop-color="#AA80F9"/>
<stop offset="1" stop-color="#6165D7"/>
</linearGradient>
<linearGradient id="paint38_linear_134_524" x1="23.5184" y1="72.7338" x2="24.5594" y2="65.1512" gradientUnits="userSpaceOnUse">
<stop stop-color="#AB316D"/>
<stop offset="1" stop-color="#792D3D"/>
</linearGradient>
<linearGradient id="paint39_linear_134_524" x1="20.9837" y1="73.3463" x2="26.9883" y2="63.3236" gradientUnits="userSpaceOnUse">
<stop stop-color="#311944"/>
<stop offset="1" stop-color="#6B3976"/>
</linearGradient>
<linearGradient id="paint40_linear_134_524" x1="24.6798" y1="66.6075" x2="23.4258" y2="77.9066" gradientUnits="userSpaceOnUse">
<stop stop-color="#AB316D"/>
<stop offset="1" stop-color="#792D3D"/>
</linearGradient>
<linearGradient id="paint41_linear_134_524" x1="33.8478" y1="83.8678" x2="46.9252" y2="83.0937" gradientUnits="userSpaceOnUse">
<stop stop-color="#40447E"/>
<stop offset="1" stop-color="#3C3B6B"/>
</linearGradient>
<linearGradient id="paint42_linear_134_524" x1="54.3985" y1="87.8253" x2="60.4797" y2="85.4317" gradientUnits="userSpaceOnUse">
<stop stop-color="#40447E"/>
<stop offset="1" stop-color="#3C3B6B"/>
</linearGradient>
<linearGradient id="paint43_linear_134_524" x1="53.1576" y1="84.7506" x2="124.789" y2="148.416" gradientUnits="userSpaceOnUse">
<stop stop-color="#FFC444"/>
<stop offset="1" stop-color="#F36F56"/>
</linearGradient>
<linearGradient id="paint44_linear_134_524" x1="26.2973" y1="91.2599" x2="56.1224" y2="86.6529" gradientUnits="userSpaceOnUse">
<stop stop-color="#311944"/>
<stop offset="1" stop-color="#6B3976"/>
</linearGradient>
<linearGradient id="paint45_linear_134_524" x1="15.1423" y1="98.0513" x2="51.3018" y2="89.3088" gradientUnits="userSpaceOnUse">
<stop stop-color="#311944"/>
<stop offset="1" stop-color="#893976"/>
</linearGradient>
<linearGradient id="paint46_linear_134_524" x1="27.8402" y1="92.3233" x2="49.6971" y2="86.4307" gradientUnits="userSpaceOnUse">
<stop stop-color="#311944"/>
<stop offset="1" stop-color="#6B3976"/>
</linearGradient>
</defs>
</svg>
