<svg width="19" height="16" viewBox="0 0 19 16" fill="none" xmlns="http://www.w3.org/2000/svg">
<path d="M18.4481 7.68596C18.4481 8.11954 18.128 8.47771 17.7148 8.53025L17.6096 8.53688H0.840647C0.500795 8.53688 0.1956 8.32926 0.0659195 8.01045C0.023438 7.90607 0.00219727 7.79601 0.00219727 7.68596C0.00219727 7.5016 0.0611993 7.3188 0.174675 7.1691L0.249261 7.08351L7.01276 0.247763C7.34031 -0.0835295 7.87133 -0.0823975 8.19777 0.250031C8.497 0.555795 8.52194 1.03412 8.27085 1.36689L8.19553 1.4538L2.87081 6.83504L17.6096 6.83504C18.0725 6.83504 18.4481 7.21625 18.4481 7.68596ZM8.19564 13.9178C8.52431 14.2491 8.52431 14.788 8.19788 15.1216C7.89864 15.4263 7.42751 15.4526 7.0979 15.1997L7.01175 15.1238L3.28233 11.3537C3.11687 11.1869 3.03526 10.969 3.03526 10.7501C3.03526 10.5334 3.11687 10.3167 3.28009 10.1499C3.57932 9.84413 4.04952 9.81769 4.37897 10.0715L4.4651 10.1476L8.19564 13.9178Z" fill="white"/>
</svg>
