<svg width="21" height="23" viewBox="0 0 21 23" fill="none" xmlns="http://www.w3.org/2000/svg">
<path fill-rule="evenodd" clip-rule="evenodd" d="M0 0V15.8537C0 15.8537 1.2 22.6 5.4 22.6C9.6 22.6 21 22.6 21 22.6C21 22.6 21 13.1552 21 11.4687C21 9.78209 18.6 2.02388 12 0C6 0 0 0 0 0Z" fill="#FF4267"/>
<path fill-rule="evenodd" clip-rule="evenodd" d="M6.84308 15.9864C6.89877 16.7501 7.51938 17.3413 8.26784 17.3438H13.1612C13.9096 17.3413 14.5302 16.7501 14.5859 15.9864L15.0355 9.5481H6.39355L6.84308 15.9864Z" fill="white"/>
<path fill-rule="evenodd" clip-rule="evenodd" d="M15.9524 7.59895H13.0952V6.62449C13.0952 6.08631 12.6688 5.65002 12.1429 5.65002H9.28571C8.75973 5.65002 8.33333 6.08631 8.33333 6.62449V7.59895H5.47619C5.2132 7.59895 5 7.81709 5 8.08618C5 8.35527 5.2132 8.57341 5.47619 8.57341H15.9524C16.2154 8.57341 16.4286 8.35527 16.4286 8.08618C16.4286 7.81709 16.2154 7.59895 15.9524 7.59895ZM9.28564 6.62466H12.1428V7.59912H9.28564V6.62466Z" fill="white"/>
</svg>
