<svg width="20" height="20" viewBox="0 0 20 20" fill="none" xmlns="http://www.w3.org/2000/svg">
<path d="M10 0C15.514 0 20 4.485 20 10C20 15.514 15.514 20 10 20C6.873 20 3.983 18.577 2.073 16.098C1.828 15.779 1.887 15.322 2.206 15.078C2.523 14.832 2.979 14.893 3.225 15.21C4.858 17.33 7.327 18.546 10 18.546C14.712 18.546 18.546 14.713 18.546 10C18.546 5.288 14.712 1.454 10 1.454C5.288 1.454 1.454 5.288 1.454 10C1.454 10.438 1.487 10.873 1.552 11.299C1.612 11.695 1.34 12.066 0.943 12.127C0.544 12.193 0.175 11.916 0.115 11.519C0.039 11.021 0 10.51 0 10C0 4.485 4.486 0 10 0ZM10.0102 13.0459C10.4242 13.0459 10.7602 13.3819 10.7602 13.7959C10.7602 14.2099 10.4242 14.5459 10.0102 14.5459C9.5962 14.5459 9.2552 14.2099 9.2552 13.7959C9.2552 13.3819 9.5862 13.0459 10.0002 13.0459H10.0102ZM10 5.4541C10.414 5.4541 10.75 5.7901 10.75 6.2041V10.6241C10.75 11.0381 10.414 11.3741 10 11.3741C9.586 11.3741 9.25 11.0381 9.25 10.6241V6.2041C9.25 5.7901 9.586 5.4541 10 5.4541Z" fill="white"/>
</svg>
