<svg width="34" height="42" viewBox="0 0 34 42" fill="none" xmlns="http://www.w3.org/2000/svg">
<path d="M33.2 33.8184C33.2 40.4785 23.9548 41.25 17 41.25C16.299 41.25 15.6082 41.2399 14.9297 41.2196C14.1227 41.1994 13.487 40.5291 13.5114 39.7252C13.5338 38.9233 14.2307 38.3199 15.0132 38.3138C15.6653 38.332 16.3276 38.3401 17 38.3401C25.8071 38.3401 30.2738 36.8194 30.2738 33.8184C30.2738 30.7891 25.8071 29.2522 17 29.2522C8.19292 29.2522 3.72621 30.7749 3.72621 33.7779C3.72621 34.76 4.0767 36.1836 7.11904 37.2082C7.88523 37.4654 8.29481 38.2895 8.03602 39.0489C7.77519 39.8082 6.94787 40.2234 6.17964 39.9601C1.7333 38.4637 0.800018 35.7725 0.800018 33.7779C0.800018 27.2518 9.67172 26.3783 16.5714 26.3454L17.7712 26.3458C22.3726 26.3692 33.2 26.7755 33.2 33.8184ZM17 0.75C23.0154 0.75 27.908 5.61393 27.908 11.5916C27.908 17.5672 23.0154 22.4311 17 22.4311C10.9846 22.4311 6.08998 17.5672 6.08998 11.5916C6.08998 5.61393 10.9846 0.75 17 0.75ZM17 3.65985C12.5985 3.65985 9.01821 7.21769 9.01821 11.5916C9.01821 15.9634 12.5985 19.5213 17 19.5213C21.4015 19.5213 24.9818 15.9634 24.9818 11.5916C24.9818 7.21769 21.4015 3.65985 17 3.65985Z" fill="black"/>
</svg>
